G04 #@! TF.GenerationSoftware,KiCad,Pcbnew,10.0.1*
G04 #@! TF.CreationDate,2026-07-27T20:14:33+10:00*
G04 #@! TF.ProjectId,SF_01 Compute Board,53465f30-3120-4436-9f6d-707574652042,rev?*
G04 #@! TF.SameCoordinates,Original*
G04 #@! TF.FileFunction,Soldermask,Top*
G04 #@! TF.FilePolarity,Negative*
%FSLAX46Y46*%
G04 Gerber Fmt 4.6, Leading zero omitted, Abs format (unit mm)*
G04 Created by KiCad (PCBNEW 10.0.1) date 2026-07-27 20:14:33*
%MOMM*%
%LPD*%
G01*
G04 APERTURE LIST*
G04 Aperture macros list*
%AMRoundRect*
0 Rectangle with rounded corners*
0 $1 Rounding radius*
0 $2 $3 $4 $5 $6 $7 $8 $9 X,Y pos of 4 corners*
0 Add a 4 corners polygon primitive as box body*
4,1,4,$2,$3,$4,$5,$6,$7,$8,$9,$2,$3,0*
0 Add four circle primitives for the rounded corners*
1,1,$1+$1,$2,$3*
1,1,$1+$1,$4,$5*
1,1,$1+$1,$6,$7*
1,1,$1+$1,$8,$9*
0 Add four rect primitives between the rounded corners*
20,1,$1+$1,$2,$3,$4,$5,0*
20,1,$1+$1,$4,$5,$6,$7,0*
20,1,$1+$1,$6,$7,$8,$9,0*
20,1,$1+$1,$8,$9,$2,$3,0*%
%AMRotRect*
0 Rectangle, with rotation*
0 The origin of the aperture is its center*
0 $1 length*
0 $2 width*
0 $3 Rotation angle, in degrees counterclockwise*
0 Add horizontal line*
21,1,$1,$2,0,0,$3*%
%AMFreePoly0*
4,1,10,0.210000,0.050000,0.050000,-0.110000,-0.160000,-0.110000,-0.195000,-0.095000,-0.210000,-0.060000,-0.210000,0.060000,-0.195000,0.095000,-0.160000,0.110000,0.210000,0.110000,0.210000,0.050000,0.210000,0.050000,$1*%
%AMFreePoly1*
4,1,10,0.210000,-0.050000,0.210000,-0.110000,-0.160000,-0.110000,-0.195000,-0.095000,-0.210000,-0.060000,-0.210000,0.060000,-0.195000,0.095000,-0.160000,0.110000,0.050000,0.110000,0.210000,-0.050000,0.210000,-0.050000,$1*%
%AMFreePoly2*
4,1,10,0.195000,0.095000,0.210000,0.060000,0.210000,-0.060000,0.195000,-0.095000,0.160000,-0.110000,-0.050000,-0.110000,-0.210000,0.050000,-0.210000,0.110000,0.160000,0.110000,0.195000,0.095000,0.195000,0.095000,$1*%
%AMFreePoly3*
4,1,12,0.260000,0.029000,0.071000,-0.160000,-0.160000,-0.160000,-0.210000,-0.147000,-0.247000,-0.110000,-0.260000,-0.060000,-0.260000,0.060000,-0.247000,0.110000,-0.210000,0.147000,-0.160000,0.160000,0.260000,0.160000,0.260000,0.029000,0.260000,0.029000,$1*%
%AMFreePoly4*
4,1,12,0.260000,-0.029000,0.260000,-0.160000,-0.160000,-0.160000,-0.210000,-0.147000,-0.247000,-0.110000,-0.260000,-0.060000,-0.260000,0.060000,-0.247000,0.110000,-0.210000,0.147000,-0.160000,0.160000,0.071000,0.160000,0.260000,-0.029000,0.260000,-0.029000,$1*%
%AMFreePoly5*
4,1,12,0.210000,0.147000,0.247000,0.110000,0.260000,0.060000,0.260000,-0.060000,0.247000,-0.110000,0.210000,-0.147000,0.160000,-0.160000,-0.260000,-0.160000,-0.260000,-0.029000,-0.071000,0.160000,0.160000,0.160000,0.210000,0.147000,0.210000,0.147000,$1*%
%AMFreePoly6*
4,1,12,0.210000,0.147000,0.247000,0.110000,0.260000,0.060000,0.260000,-0.060000,0.247000,-0.110000,0.210000,-0.147000,0.160000,-0.160000,-0.071000,-0.160000,-0.260000,0.029000,-0.260000,0.160000,0.160000,0.160000,0.210000,0.147000,0.210000,0.147000,$1*%
G04 Aperture macros list end*
%ADD10C,0.265000*%
%ADD11R,2.600000X0.280000*%
%ADD12O,3.504000X1.704000*%
%ADD13O,2.504000X1.704000*%
%ADD14R,1.498600X0.889000*%
%ADD15R,0.889000X0.889000*%
%ADD16RoundRect,0.102500X-0.102500X0.682500X-0.102500X-0.682500X0.102500X-0.682500X0.102500X0.682500X0*%
%ADD17RoundRect,0.102500X0.102500X-0.682500X0.102500X0.682500X-0.102500X0.682500X-0.102500X-0.682500X0*%
%ADD18RoundRect,0.102500X0.682500X0.102500X-0.682500X0.102500X-0.682500X-0.102500X0.682500X-0.102500X0*%
%ADD19RoundRect,0.102500X0.410122X0.555079X-0.555079X-0.410122X-0.410122X-0.555079X0.555079X0.410122X0*%
%ADD20RoundRect,0.225000X-0.250000X0.225000X-0.250000X-0.225000X0.250000X-0.225000X0.250000X0.225000X0*%
%ADD21RoundRect,0.250000X1.050000X0.550000X-1.050000X0.550000X-1.050000X-0.550000X1.050000X-0.550000X0*%
%ADD22RoundRect,0.200000X0.200000X0.275000X-0.200000X0.275000X-0.200000X-0.275000X0.200000X-0.275000X0*%
%ADD23RoundRect,0.225000X0.250000X-0.225000X0.250000X0.225000X-0.250000X0.225000X-0.250000X-0.225000X0*%
%ADD24RoundRect,0.250000X-0.262500X-0.450000X0.262500X-0.450000X0.262500X0.450000X-0.262500X0.450000X0*%
%ADD25RoundRect,0.100000X-0.637500X-0.100000X0.637500X-0.100000X0.637500X0.100000X-0.637500X0.100000X0*%
%ADD26R,2.700000X3.600000*%
%ADD27RoundRect,0.200000X-0.200000X-0.275000X0.200000X-0.275000X0.200000X0.275000X-0.200000X0.275000X0*%
%ADD28RoundRect,0.225000X0.225000X0.250000X-0.225000X0.250000X-0.225000X-0.250000X0.225000X-0.250000X0*%
%ADD29RoundRect,0.225000X-0.225000X-0.250000X0.225000X-0.250000X0.225000X0.250000X-0.225000X0.250000X0*%
%ADD30RoundRect,0.250000X-0.295000X-0.315000X0.295000X-0.315000X0.295000X0.315000X-0.295000X0.315000X0*%
%ADD31FreePoly0,180.000000*%
%ADD32FreePoly1,180.000000*%
%ADD33FreePoly2,180.000000*%
%ADD34FreePoly3,180.000000*%
%ADD35FreePoly4,180.000000*%
%ADD36RoundRect,0.071429X0.000000X0.075761X-0.075761X0.000000X0.000000X-0.075761X0.075761X0.000000X0*%
%ADD37FreePoly5,180.000000*%
%ADD38FreePoly6,180.000000*%
%ADD39RoundRect,0.250000X-1.600000X0.300000X-1.600000X-0.300000X1.600000X-0.300000X1.600000X0.300000X0*%
%ADD40RoundRect,0.200000X0.275000X-0.200000X0.275000X0.200000X-0.275000X0.200000X-0.275000X-0.200000X0*%
%ADD41RoundRect,0.090000X-0.360000X0.660000X-0.360000X-0.660000X0.360000X-0.660000X0.360000X0.660000X0*%
%ADD42RoundRect,0.250000X-0.750000X0.600000X-0.750000X-0.600000X0.750000X-0.600000X0.750000X0.600000X0*%
%ADD43O,2.000000X1.700000*%
%ADD44RoundRect,0.200000X-0.275000X0.200000X-0.275000X-0.200000X0.275000X-0.200000X0.275000X0.200000X0*%
%ADD45RoundRect,0.225000X-0.017678X0.335876X-0.335876X0.017678X0.017678X-0.335876X0.335876X-0.017678X0*%
%ADD46RoundRect,0.250000X-0.550000X1.050000X-0.550000X-1.050000X0.550000X-1.050000X0.550000X1.050000X0*%
%ADD47C,0.650000*%
%ADD48RoundRect,0.150000X0.500000X-0.150000X0.500000X0.150000X-0.500000X0.150000X-0.500000X-0.150000X0*%
%ADD49RoundRect,0.075000X0.575000X-0.075000X0.575000X0.075000X-0.575000X0.075000X-0.575000X-0.075000X0*%
%ADD50O,2.100000X1.000000*%
%ADD51O,1.600000X1.000000*%
%ADD52RoundRect,0.225000X0.017678X-0.335876X0.335876X-0.017678X-0.017678X0.335876X-0.335876X0.017678X0*%
%ADD53RoundRect,0.250000X1.250000X0.550000X-1.250000X0.550000X-1.250000X-0.550000X1.250000X-0.550000X0*%
%ADD54RoundRect,0.250000X-1.250000X-0.550000X1.250000X-0.550000X1.250000X0.550000X-1.250000X0.550000X0*%
%ADD55RoundRect,0.250000X-0.503814X-0.132583X-0.132583X-0.503814X0.503814X0.132583X0.132583X0.503814X0*%
%ADD56RoundRect,0.225000X-0.335876X-0.017678X-0.017678X-0.335876X0.335876X0.017678X0.017678X0.335876X0*%
%ADD57RoundRect,0.250000X-0.600000X-0.750000X0.600000X-0.750000X0.600000X0.750000X-0.600000X0.750000X0*%
%ADD58O,1.700000X2.000000*%
%ADD59RoundRect,0.250000X-1.050000X-0.550000X1.050000X-0.550000X1.050000X0.550000X-1.050000X0.550000X0*%
%ADD60RoundRect,0.250000X0.450000X-0.262500X0.450000X0.262500X-0.450000X0.262500X-0.450000X-0.262500X0*%
%ADD61RoundRect,0.225000X0.335876X0.017678X0.017678X0.335876X-0.335876X-0.017678X-0.017678X-0.335876X0*%
%ADD62RoundRect,0.250000X-0.650000X1.000000X-0.650000X-1.000000X0.650000X-1.000000X0.650000X1.000000X0*%
%ADD63RoundRect,0.218750X-0.218750X-0.256250X0.218750X-0.256250X0.218750X0.256250X-0.218750X0.256250X0*%
%ADD64RoundRect,0.250000X0.262500X0.450000X-0.262500X0.450000X-0.262500X-0.450000X0.262500X-0.450000X0*%
%ADD65R,2.020000X5.020000*%
%ADD66O,2.020000X5.020000*%
%ADD67RoundRect,0.102000X0.525000X-1.395000X0.525000X1.395000X-0.525000X1.395000X-0.525000X-1.395000X0*%
%ADD68RoundRect,0.102000X5.290000X-3.420000X5.290000X3.420000X-5.290000X3.420000X-5.290000X-3.420000X0*%
%ADD69RoundRect,0.150000X-0.512500X-0.150000X0.512500X-0.150000X0.512500X0.150000X-0.512500X0.150000X0*%
%ADD70RoundRect,0.250000X0.550000X-1.050000X0.550000X1.050000X-0.550000X1.050000X-0.550000X-1.050000X0*%
%ADD71R,0.900000X1.000000*%
%ADD72R,1.700000X0.550000*%
%ADD73RoundRect,0.075000X-0.350000X-0.075000X0.350000X-0.075000X0.350000X0.075000X-0.350000X0.075000X0*%
%ADD74RoundRect,0.075000X0.075000X-0.350000X0.075000X0.350000X-0.075000X0.350000X-0.075000X-0.350000X0*%
%ADD75R,1.000000X1.600000*%
%ADD76R,3.600000X2.700000*%
%ADD77RoundRect,0.125000X-0.125000X-0.137500X0.125000X-0.137500X0.125000X0.137500X-0.125000X0.137500X0*%
%ADD78RoundRect,0.075000X-0.200000X0.075000X-0.200000X-0.075000X0.200000X-0.075000X0.200000X0.075000X0*%
%ADD79FreePoly0,90.000000*%
%ADD80FreePoly1,90.000000*%
%ADD81FreePoly2,90.000000*%
%ADD82FreePoly3,90.000000*%
%ADD83FreePoly4,90.000000*%
%ADD84RoundRect,0.071429X0.075761X0.000000X0.000000X0.075761X-0.075761X0.000000X0.000000X-0.075761X0*%
%ADD85FreePoly5,90.000000*%
%ADD86FreePoly6,90.000000*%
%ADD87R,1.000000X0.900000*%
%ADD88R,0.550000X1.700000*%
%ADD89RoundRect,0.250000X0.550000X-1.250000X0.550000X1.250000X-0.550000X1.250000X-0.550000X-1.250000X0*%
%ADD90RoundRect,0.250000X-1.150000X-0.250000X1.150000X-0.250000X1.150000X0.250000X-1.150000X0.250000X0*%
%ADD91RotRect,1.700000X1.700000X225.000000*%
%ADD92C,1.700000*%
%ADD93RoundRect,0.250000X-0.450000X0.262500X-0.450000X-0.262500X0.450000X-0.262500X0.450000X0.262500X0*%
%ADD94R,0.700000X0.200000*%
%ADD95C,6.004000*%
%ADD96R,0.736600X0.203200*%
%ADD97R,0.736600X0.406400*%
%ADD98RoundRect,0.150000X0.512500X0.150000X-0.512500X0.150000X-0.512500X-0.150000X0.512500X-0.150000X0*%
G04 APERTURE END LIST*
D10*
G04 #@! TO.C,U12*
X90800000Y-41900000D03*
X90800000Y-42400000D03*
X90800000Y-42900000D03*
X91300000Y-41900000D03*
X91300000Y-42400000D03*
X91300000Y-42900000D03*
X90800000Y-41900000D03*
X91300000Y-41900000D03*
X90800000Y-42400000D03*
X91300000Y-42400000D03*
X90800000Y-42900000D03*
X91300000Y-42900000D03*
G04 #@! TD*
G04 #@! TO.C,U24*
X91300000Y-39400000D03*
X91300000Y-38900000D03*
X91300000Y-38400000D03*
X90800000Y-39400000D03*
X90800000Y-38900000D03*
X90800000Y-38400000D03*
X91300000Y-39400000D03*
X90800000Y-39400000D03*
X91300000Y-38900000D03*
X90800000Y-38900000D03*
X91300000Y-38400000D03*
X90800000Y-38400000D03*
G04 #@! TD*
G04 #@! TO.C,U26*
X87400000Y-58300000D03*
X86900000Y-58300000D03*
X86400000Y-58300000D03*
X87400000Y-58800000D03*
X86900000Y-58800000D03*
X86400000Y-58800000D03*
X87400000Y-58300000D03*
X87400000Y-58800000D03*
X86900000Y-58300000D03*
X86900000Y-58800000D03*
X86400000Y-58300000D03*
X86400000Y-58800000D03*
G04 #@! TD*
G04 #@! TO.C,U16*
X89800000Y-58800000D03*
X90300000Y-58800000D03*
X90800000Y-58800000D03*
X89800000Y-58300000D03*
X90300000Y-58300000D03*
X90800000Y-58300000D03*
X89800000Y-58800000D03*
X89800000Y-58300000D03*
X90300000Y-58800000D03*
X90300000Y-58300000D03*
X90800000Y-58800000D03*
X90800000Y-58300000D03*
G04 #@! TD*
G04 #@! TO.C,U13*
X94800000Y-54100000D03*
X95300000Y-54100000D03*
X95800000Y-54100000D03*
X94800000Y-53600000D03*
X95300000Y-53600000D03*
X95800000Y-53600000D03*
X94800000Y-54100000D03*
X94800000Y-53600000D03*
X95300000Y-54100000D03*
X95300000Y-53600000D03*
X95800000Y-54100000D03*
X95800000Y-53600000D03*
G04 #@! TD*
G04 #@! TO.C,U25*
X98250000Y-57550000D03*
X98750000Y-57550000D03*
X99250000Y-57550000D03*
X98250000Y-57050000D03*
X98750000Y-57050000D03*
X99250000Y-57050000D03*
X98250000Y-57550000D03*
X98250000Y-57050000D03*
X98750000Y-57550000D03*
X98750000Y-57050000D03*
X99250000Y-57550000D03*
X99250000Y-57050000D03*
G04 #@! TD*
G04 #@! TO.C,U15*
X94800000Y-57100000D03*
X95300000Y-57100000D03*
X95800000Y-57100000D03*
X94800000Y-56600000D03*
X95300000Y-56600000D03*
X95800000Y-56600000D03*
X94800000Y-57100000D03*
X94800000Y-56600000D03*
X95300000Y-57100000D03*
X95300000Y-56600000D03*
X95800000Y-57100000D03*
X95800000Y-56600000D03*
G04 #@! TD*
D11*
G04 #@! TO.C,J1*
X192980000Y-117344250D03*
X192980000Y-117844249D03*
X192980000Y-118344250D03*
X192980000Y-118844250D03*
X192979999Y-119344250D03*
X192980000Y-119844250D03*
X192980000Y-120344250D03*
X192980000Y-120844250D03*
X192980000Y-121344250D03*
X192979999Y-121844250D03*
X192980000Y-122344250D03*
X192980000Y-122844250D03*
X192980000Y-123344250D03*
X192980000Y-123844250D03*
X192979999Y-124344250D03*
X192980000Y-124844250D03*
X192980000Y-125344250D03*
X192980000Y-125844251D03*
X192980000Y-126344250D03*
D12*
X193740000Y-129094250D03*
X193740000Y-114594250D03*
D13*
X199700000Y-129094250D03*
X199700000Y-114594250D03*
G04 #@! TD*
D14*
G04 #@! TO.C,U28*
X163930500Y-32942300D03*
X163930500Y-34212300D03*
X163930500Y-35482300D03*
X163930500Y-36752300D03*
X163930500Y-38022300D03*
X163930500Y-39292300D03*
X163930500Y-40562300D03*
X163930500Y-41832300D03*
X163930500Y-43102300D03*
X163930500Y-44372300D03*
X163930500Y-45642300D03*
X163930500Y-46912300D03*
X163930500Y-51992300D03*
X163930500Y-53262300D03*
X163930500Y-54532300D03*
X163930500Y-55802300D03*
X181430500Y-55802300D03*
X181430500Y-54532300D03*
X181430500Y-53262300D03*
X181430500Y-51992300D03*
X181430500Y-50722300D03*
X181430500Y-49452300D03*
X181430500Y-48182300D03*
X181430500Y-46912300D03*
X181430500Y-45642300D03*
X181430500Y-44372300D03*
X181430500Y-43102300D03*
X181430500Y-41832300D03*
X181430500Y-40562300D03*
X181430500Y-39292300D03*
X181430500Y-38022300D03*
X181430500Y-36752300D03*
X181430500Y-35482300D03*
X181430500Y-34212300D03*
X181430500Y-32942300D03*
D15*
X171100000Y-40889100D03*
X169710900Y-40889100D03*
X169710900Y-42278200D03*
X171100000Y-42278200D03*
X172489100Y-42278200D03*
X172489100Y-40889100D03*
X172489100Y-39500000D03*
X171100000Y-39500000D03*
X169710900Y-39500000D03*
D14*
X163930500Y-50722300D03*
X163930500Y-48182300D03*
X163930500Y-49452300D03*
G04 #@! TD*
D16*
G04 #@! TO.C,U21*
X158375000Y-129727500D03*
X157725000Y-129727500D03*
X157075000Y-129727500D03*
X156425000Y-129727500D03*
X155775000Y-129727500D03*
X155125000Y-129727500D03*
X154475000Y-129727500D03*
X153825000Y-129727500D03*
X153175000Y-129727500D03*
X152525000Y-129727500D03*
X151875000Y-129727500D03*
X151225000Y-129727500D03*
X150575000Y-129727500D03*
X149925000Y-129727500D03*
X149275000Y-129727500D03*
X148625000Y-129727500D03*
X148625000Y-137167500D03*
X149275000Y-137167500D03*
X149925000Y-137167500D03*
X150575000Y-137167500D03*
X151225000Y-137167500D03*
X151875000Y-137167500D03*
X152525000Y-137167500D03*
X153175000Y-137167500D03*
X153825000Y-137167500D03*
X154475000Y-137167500D03*
X155125000Y-137167500D03*
X155775000Y-137167500D03*
X156425000Y-137167500D03*
X157075000Y-137167500D03*
X157725000Y-137167500D03*
X158375000Y-137167500D03*
G04 #@! TD*
G04 #@! TO.C,U20*
X127675000Y-129780000D03*
X127025000Y-129780000D03*
X126375000Y-129780000D03*
X125725000Y-129780000D03*
X125075000Y-129780000D03*
X124425000Y-129780000D03*
X123775000Y-129780000D03*
X123125000Y-129780000D03*
X122475000Y-129780000D03*
X121825000Y-129780000D03*
X121175000Y-129780000D03*
X120525000Y-129780000D03*
X119875000Y-129780000D03*
X119225000Y-129780000D03*
X118575000Y-129780000D03*
X117925000Y-129780000D03*
X117925000Y-137220000D03*
X118575000Y-137220000D03*
X119225000Y-137220000D03*
X119875000Y-137220000D03*
X120525000Y-137220000D03*
X121175000Y-137220000D03*
X121825000Y-137220000D03*
X122475000Y-137220000D03*
X123125000Y-137220000D03*
X123775000Y-137220000D03*
X124425000Y-137220000D03*
X125075000Y-137220000D03*
X125725000Y-137220000D03*
X126375000Y-137220000D03*
X127025000Y-137220000D03*
X127675000Y-137220000D03*
G04 #@! TD*
D17*
G04 #@! TO.C,U19*
X88125000Y-143672500D03*
X88775000Y-143672500D03*
X89425000Y-143672500D03*
X90075000Y-143672500D03*
X90725000Y-143672500D03*
X91375000Y-143672500D03*
X92025000Y-143672500D03*
X92675000Y-143672500D03*
X93325000Y-143672500D03*
X93975000Y-143672500D03*
X94625000Y-143672500D03*
X95275000Y-143672500D03*
X95925000Y-143672500D03*
X96575000Y-143672500D03*
X97225000Y-143672500D03*
X97875000Y-143672500D03*
X97875000Y-136232500D03*
X97225000Y-136232500D03*
X96575000Y-136232500D03*
X95925000Y-136232500D03*
X95275000Y-136232500D03*
X94625000Y-136232500D03*
X93975000Y-136232500D03*
X93325000Y-136232500D03*
X92675000Y-136232500D03*
X92025000Y-136232500D03*
X91375000Y-136232500D03*
X90725000Y-136232500D03*
X90075000Y-136232500D03*
X89425000Y-136232500D03*
X88775000Y-136232500D03*
X88125000Y-136232500D03*
G04 #@! TD*
D18*
G04 #@! TO.C,U18*
X116320000Y-64500000D03*
X116320000Y-63850000D03*
X116320000Y-63200000D03*
X116320000Y-62550000D03*
X116320000Y-61900000D03*
X116320000Y-61250000D03*
X116320000Y-60600000D03*
X116320000Y-59950000D03*
X116320000Y-59300000D03*
X116320000Y-58650000D03*
X116320000Y-58000000D03*
X116320000Y-57350000D03*
X116320000Y-56700000D03*
X116320000Y-56050000D03*
X116320000Y-55400000D03*
X116320000Y-54750000D03*
X108880000Y-54750000D03*
X108880000Y-55400000D03*
X108880000Y-56050000D03*
X108880000Y-56700000D03*
X108880000Y-57350000D03*
X108880000Y-58000000D03*
X108880000Y-58650000D03*
X108880000Y-59300000D03*
X108880000Y-59950000D03*
X108880000Y-60600000D03*
X108880000Y-61250000D03*
X108880000Y-61900000D03*
X108880000Y-62550000D03*
X108880000Y-63200000D03*
X108880000Y-63850000D03*
X108880000Y-64500000D03*
G04 #@! TD*
D19*
G04 #@! TO.C,U17*
X151077583Y-51616708D03*
X150617963Y-51157089D03*
X150158344Y-50697470D03*
X149698725Y-50237850D03*
X149239105Y-49778231D03*
X148779486Y-49318611D03*
X148319866Y-48858992D03*
X147860247Y-48399372D03*
X147400628Y-47939753D03*
X146941008Y-47480134D03*
X146481389Y-47020514D03*
X146021769Y-46560895D03*
X145562150Y-46101275D03*
X145102530Y-45641656D03*
X144642911Y-45182037D03*
X144183292Y-44722417D03*
X138922417Y-49983292D03*
X139382037Y-50442911D03*
X139841656Y-50902530D03*
X140301275Y-51362150D03*
X140760895Y-51821769D03*
X141220514Y-52281389D03*
X141680134Y-52741008D03*
X142139753Y-53200628D03*
X142599372Y-53660247D03*
X143058992Y-54119866D03*
X143518611Y-54579486D03*
X143978231Y-55039105D03*
X144437850Y-55498725D03*
X144897470Y-55958344D03*
X145357089Y-56417963D03*
X145816708Y-56877583D03*
G04 #@! TD*
D20*
G04 #@! TO.C,C169*
X158100000Y-139125000D03*
X158100000Y-140675000D03*
G04 #@! TD*
D21*
G04 #@! TO.C,C16*
X97525000Y-34200000D03*
X93925000Y-34200000D03*
G04 #@! TD*
D22*
G04 #@! TO.C,R44*
X103457825Y-146761820D03*
X101807825Y-146761820D03*
G04 #@! TD*
D23*
G04 #@! TO.C,C63*
X147099998Y-71924997D03*
X147099998Y-70374997D03*
G04 #@! TD*
D24*
G04 #@! TO.C,R51*
X135487500Y-148600000D03*
X137312500Y-148600000D03*
G04 #@! TD*
D25*
G04 #@! TO.C,U14*
X104137500Y-46375000D03*
X104137500Y-47025000D03*
X104137500Y-47675000D03*
X104137500Y-48325000D03*
X104137500Y-48975000D03*
X104137500Y-49625000D03*
X104137500Y-50275000D03*
X104137500Y-50925000D03*
X104137500Y-51575000D03*
X104137500Y-52225000D03*
X109862500Y-52225000D03*
X109862500Y-51575000D03*
X109862500Y-50925000D03*
X109862500Y-50275000D03*
X109862500Y-49625000D03*
X109862500Y-48975000D03*
X109862500Y-48325000D03*
X109862500Y-47675000D03*
X109862500Y-47025000D03*
X109862500Y-46375000D03*
G04 #@! TD*
D26*
G04 #@! TO.C,L12*
X96700000Y-98300000D03*
X88400000Y-98300000D03*
G04 #@! TD*
D27*
G04 #@! TO.C,R70*
X132575000Y-97900000D03*
X134225000Y-97900000D03*
G04 #@! TD*
D28*
G04 #@! TO.C,C49*
X135775000Y-48000000D03*
X134225000Y-48000000D03*
G04 #@! TD*
D29*
G04 #@! TO.C,C72*
X128625000Y-103500000D03*
X130175000Y-103500000D03*
G04 #@! TD*
D22*
G04 #@! TO.C,R12*
X169025000Y-129800000D03*
X167375000Y-129800000D03*
G04 #@! TD*
D30*
G04 #@! TO.C,C41*
X182585000Y-127900000D03*
X184015000Y-127900000D03*
G04 #@! TD*
D24*
G04 #@! TO.C,R63*
X151587500Y-148000000D03*
X153412500Y-148000000D03*
G04 #@! TD*
D31*
G04 #@! TO.C,U9*
X190265000Y-115540000D03*
D32*
X190265000Y-115060000D03*
D33*
X189485000Y-115540000D03*
D34*
X190265000Y-115540000D03*
D35*
X190265000Y-115060000D03*
D36*
X189875000Y-115300000D03*
D37*
X189485000Y-115060000D03*
D38*
X189485000Y-115540000D03*
G04 #@! TD*
D39*
G04 #@! TO.C,L16*
X112400000Y-142700000D03*
X112400000Y-145700000D03*
G04 #@! TD*
D23*
G04 #@! TO.C,C47*
X165000000Y-127775000D03*
X165000000Y-126225000D03*
G04 #@! TD*
G04 #@! TO.C,C180*
X145600000Y-145875000D03*
X145600000Y-144325000D03*
G04 #@! TD*
D29*
G04 #@! TO.C,C153*
X135525000Y-150400000D03*
X137075000Y-150400000D03*
G04 #@! TD*
D20*
G04 #@! TO.C,C158*
X93300000Y-37925000D03*
X93300000Y-39475000D03*
G04 #@! TD*
D40*
G04 #@! TO.C,R68*
X127100000Y-96325000D03*
X127100000Y-94675000D03*
G04 #@! TD*
D23*
G04 #@! TO.C,C30*
X94900000Y-43775000D03*
X94900000Y-42225000D03*
G04 #@! TD*
G04 #@! TO.C,C6*
X157600000Y-33775000D03*
X157600000Y-32225000D03*
G04 #@! TD*
D22*
G04 #@! TO.C,R4*
X152125000Y-36300000D03*
X150475000Y-36300000D03*
G04 #@! TD*
D41*
G04 #@! TO.C,D6*
X132658579Y-34200000D03*
X129358579Y-34200000D03*
X129358579Y-39100000D03*
X132658579Y-39100000D03*
G04 #@! TD*
D42*
G04 #@! TO.C,J5*
X82300000Y-102900000D03*
D43*
X82300000Y-105400000D03*
G04 #@! TD*
D27*
G04 #@! TO.C,R20*
X156075000Y-45500000D03*
X157725000Y-45500000D03*
G04 #@! TD*
D23*
G04 #@! TO.C,C105*
X100300000Y-149200000D03*
X100300000Y-147650000D03*
G04 #@! TD*
D29*
G04 #@! TO.C,C138*
X129525000Y-138410000D03*
X131075000Y-138410000D03*
G04 #@! TD*
D44*
G04 #@! TO.C,R49*
X115400000Y-119475000D03*
X115400000Y-121125000D03*
G04 #@! TD*
D45*
G04 #@! TO.C,C55*
X149000000Y-56500000D03*
X147903984Y-57596016D03*
G04 #@! TD*
D28*
G04 #@! TO.C,C82*
X113775000Y-53000000D03*
X112225000Y-53000000D03*
G04 #@! TD*
D27*
G04 #@! TO.C,R27*
X119475000Y-70100000D03*
X121125000Y-70100000D03*
G04 #@! TD*
D22*
G04 #@! TO.C,R69*
X127225000Y-103500000D03*
X125575000Y-103500000D03*
G04 #@! TD*
D28*
G04 #@! TO.C,C94*
X96075000Y-66100000D03*
X94525000Y-66100000D03*
G04 #@! TD*
D24*
G04 #@! TO.C,R24*
X120337502Y-55400000D03*
X122162502Y-55400000D03*
G04 #@! TD*
D29*
G04 #@! TO.C,C155*
X119425000Y-150600000D03*
X120975000Y-150600000D03*
G04 #@! TD*
G04 #@! TO.C,C61*
X145299998Y-63849997D03*
X146849998Y-63849997D03*
G04 #@! TD*
D46*
G04 #@! TO.C,C73*
X161700000Y-126900000D03*
X161700000Y-130500000D03*
G04 #@! TD*
D28*
G04 #@! TO.C,C126*
X93075000Y-104600000D03*
X91525000Y-104600000D03*
G04 #@! TD*
G04 #@! TO.C,C4*
X178004581Y-120580712D03*
X176454581Y-120580712D03*
G04 #@! TD*
D47*
G04 #@! TO.C,J15*
X197195000Y-55090000D03*
X197195000Y-49310000D03*
D48*
X196055000Y-55400000D03*
X196055000Y-54600000D03*
D49*
X196055001Y-53450000D03*
X196055000Y-52450000D03*
X196055000Y-51950000D03*
X196055001Y-50950000D03*
D48*
X196055000Y-49800000D03*
X196055000Y-49000000D03*
X196055000Y-49000000D03*
X196055000Y-49800000D03*
D49*
X196055000Y-50450000D03*
X196055000Y-51450000D03*
X196055000Y-52950000D03*
X196055000Y-53950000D03*
D48*
X196055000Y-54600000D03*
X196055000Y-55400000D03*
D50*
X196695000Y-56520000D03*
D51*
X200875000Y-56520000D03*
D50*
X196695000Y-47880000D03*
D51*
X200875000Y-47880000D03*
G04 #@! TD*
D28*
G04 #@! TO.C,C176*
X141475000Y-151700000D03*
X139925000Y-151700000D03*
G04 #@! TD*
D52*
G04 #@! TO.C,C48*
X133951992Y-57648008D03*
X135048008Y-56551992D03*
G04 #@! TD*
D20*
G04 #@! TO.C,C87*
X106800000Y-56700000D03*
X106800000Y-58250000D03*
G04 #@! TD*
D23*
G04 #@! TO.C,C150*
X128900000Y-145975000D03*
X128900000Y-144425000D03*
G04 #@! TD*
D40*
G04 #@! TO.C,R48*
X122200000Y-123425000D03*
X122200000Y-121775000D03*
G04 #@! TD*
G04 #@! TO.C,R50*
X128400000Y-123400000D03*
X128400000Y-121750000D03*
G04 #@! TD*
D53*
G04 #@! TO.C,C51*
X140600000Y-44200000D03*
X136200000Y-44200000D03*
G04 #@! TD*
D41*
G04 #@! TO.C,D2*
X145898581Y-34200000D03*
X142598581Y-34200000D03*
X142598581Y-39100000D03*
X145898581Y-39100000D03*
G04 #@! TD*
D54*
G04 #@! TO.C,C78*
X115200000Y-50800000D03*
X119600000Y-50800000D03*
G04 #@! TD*
D29*
G04 #@! TO.C,C13*
X80425000Y-37100000D03*
X81975000Y-37100000D03*
G04 #@! TD*
D20*
G04 #@! TO.C,C134*
X120200000Y-121825000D03*
X120200000Y-123375000D03*
G04 #@! TD*
D55*
G04 #@! TO.C,R32*
X101054765Y-84654765D03*
X102345235Y-85945235D03*
G04 #@! TD*
D23*
G04 #@! TO.C,C148*
X115700000Y-145875000D03*
X115700000Y-144325000D03*
G04 #@! TD*
D28*
G04 #@! TO.C,C165*
X147050000Y-136600000D03*
X145500000Y-136600000D03*
G04 #@! TD*
D54*
G04 #@! TO.C,C110*
X100600000Y-141500000D03*
X105000000Y-141500000D03*
G04 #@! TD*
D56*
G04 #@! TO.C,C35*
X95903984Y-47303984D03*
X97000000Y-48400000D03*
G04 #@! TD*
D44*
G04 #@! TO.C,R38*
X95000000Y-147625000D03*
X95000000Y-149275000D03*
G04 #@! TD*
D20*
G04 #@! TO.C,C66*
X130550002Y-55424998D03*
X130550002Y-56974998D03*
G04 #@! TD*
D29*
G04 #@! TO.C,C154*
X123725000Y-150000000D03*
X125275000Y-150000000D03*
G04 #@! TD*
D22*
G04 #@! TO.C,R1*
X188825000Y-127300000D03*
X187175000Y-127300000D03*
G04 #@! TD*
D57*
G04 #@! TO.C,J11*
X129200000Y-151300000D03*
D58*
X131700000Y-151300000D03*
G04 #@! TD*
D26*
G04 #@! TO.C,L7*
X97000000Y-74000000D03*
X88700000Y-74000000D03*
G04 #@! TD*
D52*
G04 #@! TO.C,C52*
X149951992Y-55248008D03*
X151048008Y-54151992D03*
G04 #@! TD*
D20*
G04 #@! TO.C,C188*
X96100000Y-49925000D03*
X96100000Y-51475000D03*
G04 #@! TD*
D29*
G04 #@! TO.C,C122*
X88025000Y-106500000D03*
X89575000Y-106500000D03*
G04 #@! TD*
G04 #@! TO.C,C183*
X151625000Y-149900000D03*
X153175000Y-149900000D03*
G04 #@! TD*
D39*
G04 #@! TO.C,L20*
X142300000Y-142900000D03*
X142300000Y-145900000D03*
G04 #@! TD*
D59*
G04 #@! TO.C,C33*
X115400000Y-44600000D03*
X119000000Y-44600000D03*
G04 #@! TD*
D60*
G04 #@! TO.C,R41*
X101200000Y-119512500D03*
X101200000Y-117687500D03*
G04 #@! TD*
D29*
G04 #@! TO.C,C182*
X155225000Y-149900000D03*
X156775000Y-149900000D03*
G04 #@! TD*
D44*
G04 #@! TO.C,R45*
X130000000Y-121750000D03*
X130000000Y-123400000D03*
G04 #@! TD*
D23*
G04 #@! TO.C,C84*
X105500000Y-67275000D03*
X105500000Y-65725000D03*
G04 #@! TD*
G04 #@! TO.C,C71*
X129500000Y-96275000D03*
X129500000Y-94725000D03*
G04 #@! TD*
D28*
G04 #@! TO.C,C125*
X96100000Y-106500000D03*
X94550000Y-106500000D03*
G04 #@! TD*
D27*
G04 #@! TO.C,R71*
X131975000Y-92500000D03*
X133625000Y-92500000D03*
G04 #@! TD*
D29*
G04 #@! TO.C,C36*
X97925000Y-53200000D03*
X99475000Y-53200000D03*
G04 #@! TD*
D60*
G04 #@! TO.C,R22*
X145399997Y-72262498D03*
X145399997Y-70437498D03*
G04 #@! TD*
D29*
G04 #@! TO.C,C108*
X99550000Y-136200000D03*
X101100000Y-136200000D03*
G04 #@! TD*
D20*
G04 #@! TO.C,C149*
X131900000Y-144425000D03*
X131900000Y-145975000D03*
G04 #@! TD*
D61*
G04 #@! TO.C,C23*
X114700000Y-37400000D03*
X113603984Y-36303984D03*
G04 #@! TD*
D39*
G04 #@! TO.C,L15*
X120900000Y-142900000D03*
X120900000Y-145900000D03*
G04 #@! TD*
D62*
G04 #@! TO.C,D1*
X183300000Y-121399999D03*
X183300000Y-125400001D03*
G04 #@! TD*
D63*
G04 #@! TO.C,D3*
X171725000Y-114400000D03*
X173300000Y-114400000D03*
G04 #@! TD*
D44*
G04 #@! TO.C,R59*
X144100000Y-121775000D03*
X144100000Y-123425000D03*
G04 #@! TD*
D24*
G04 #@! TO.C,R62*
X155087500Y-148000000D03*
X156912500Y-148000000D03*
G04 #@! TD*
D64*
G04 #@! TO.C,R23*
X125562501Y-56899999D03*
X123737501Y-56899999D03*
G04 #@! TD*
D65*
G04 #@! TO.C,J2*
X183290000Y-137000000D03*
D66*
X188470000Y-137000000D03*
G04 #@! TD*
D41*
G04 #@! TO.C,D5*
X139278578Y-34199999D03*
X135978578Y-34199999D03*
X135978578Y-39099999D03*
X139278578Y-39099999D03*
G04 #@! TD*
D63*
G04 #@! TO.C,D4*
X186587500Y-115900000D03*
X188162500Y-115900000D03*
G04 #@! TD*
D20*
G04 #@! TO.C,C67*
X127250002Y-55424997D03*
X127250002Y-56974997D03*
G04 #@! TD*
D54*
G04 #@! TO.C,C139*
X130600000Y-133000000D03*
X135000000Y-133000000D03*
G04 #@! TD*
D26*
G04 #@! TO.C,L10*
X96950000Y-123800000D03*
X88650000Y-123800000D03*
G04 #@! TD*
D28*
G04 #@! TO.C,C75*
X120775000Y-61500000D03*
X119225000Y-61500000D03*
G04 #@! TD*
G04 #@! TO.C,C69*
X125425002Y-55199999D03*
X123875002Y-55199999D03*
G04 #@! TD*
G04 #@! TO.C,C43*
X158175000Y-73700000D03*
X156625000Y-73700000D03*
G04 #@! TD*
D22*
G04 #@! TO.C,R8*
X96400000Y-37500000D03*
X94750000Y-37500000D03*
G04 #@! TD*
D29*
G04 #@! TO.C,C60*
X145299999Y-62250000D03*
X146849999Y-62250000D03*
G04 #@! TD*
D40*
G04 #@! TO.C,R47*
X123700000Y-123425000D03*
X123700000Y-121775000D03*
G04 #@! TD*
D27*
G04 #@! TO.C,R5*
X168595000Y-114400000D03*
X170245000Y-114400000D03*
G04 #@! TD*
D24*
G04 #@! TO.C,R64*
X139687500Y-148200000D03*
X141512500Y-148200000D03*
G04 #@! TD*
D28*
G04 #@! TO.C,C136*
X115975000Y-138200000D03*
X114425000Y-138200000D03*
G04 #@! TD*
D27*
G04 #@! TO.C,R28*
X110475000Y-70200000D03*
X112125000Y-70200000D03*
G04 #@! TD*
D25*
G04 #@! TO.C,U5*
X103875000Y-32175000D03*
X103875000Y-32825000D03*
X103875000Y-33475000D03*
X103875000Y-34125000D03*
X103875000Y-34775000D03*
X103875000Y-35425000D03*
X103875000Y-36075000D03*
X103875000Y-36725000D03*
X103875000Y-37375000D03*
X103875000Y-38025000D03*
X109600000Y-38025000D03*
X109600000Y-37375000D03*
X109600000Y-36725000D03*
X109600000Y-36075000D03*
X109600000Y-35425000D03*
X109600000Y-34775000D03*
X109600000Y-34125000D03*
X109600000Y-33475000D03*
X109600000Y-32825000D03*
X109600000Y-32175000D03*
G04 #@! TD*
D67*
G04 #@! TO.C,VR1*
X173560000Y-135550000D03*
X176100000Y-135550000D03*
X178640000Y-135550000D03*
D68*
X176100000Y-125200000D03*
G04 #@! TD*
D29*
G04 #@! TO.C,C45*
X167425000Y-131400000D03*
X168975000Y-131400000D03*
G04 #@! TD*
D24*
G04 #@! TO.C,R61*
X166987500Y-147600000D03*
X168812500Y-147600000D03*
G04 #@! TD*
D29*
G04 #@! TO.C,C10*
X94750000Y-40700000D03*
X96300000Y-40700000D03*
G04 #@! TD*
D20*
G04 #@! TO.C,C159*
X154300000Y-121825000D03*
X154300000Y-123375000D03*
G04 #@! TD*
D28*
G04 #@! TO.C,C90*
X96075000Y-67700000D03*
X94525000Y-67700000D03*
G04 #@! TD*
D39*
G04 #@! TO.C,L13*
X135200000Y-142900000D03*
X135200000Y-145900000D03*
G04 #@! TD*
D69*
G04 #@! TO.C,U27*
X167062500Y-126350000D03*
X167062500Y-127300000D03*
X167062500Y-128250000D03*
X169337500Y-128250000D03*
X169337500Y-126350000D03*
G04 #@! TD*
D22*
G04 #@! TO.C,R10*
X99525000Y-50000000D03*
X97875000Y-50000000D03*
G04 #@! TD*
D28*
G04 #@! TO.C,C24*
X156375000Y-72100000D03*
X154825000Y-72100000D03*
G04 #@! TD*
D24*
G04 #@! TO.C,R54*
X106887500Y-147770711D03*
X108712500Y-147770711D03*
G04 #@! TD*
D22*
G04 #@! TO.C,R9*
X96400000Y-39100000D03*
X94750000Y-39100000D03*
G04 #@! TD*
D20*
G04 #@! TO.C,C28*
X101200000Y-43125000D03*
X101200000Y-44675000D03*
G04 #@! TD*
D28*
G04 #@! TO.C,C42*
X147608578Y-32400000D03*
X146058578Y-32400000D03*
G04 #@! TD*
D41*
G04 #@! TO.C,D7*
X126038579Y-34200000D03*
X122738579Y-34200000D03*
X122738579Y-39100000D03*
X126038579Y-39100000D03*
G04 #@! TD*
D28*
G04 #@! TO.C,C1*
X181275000Y-120600000D03*
X179725000Y-120600000D03*
G04 #@! TD*
G04 #@! TO.C,C77*
X120700000Y-59100000D03*
X119150000Y-59100000D03*
G04 #@! TD*
D20*
G04 #@! TO.C,C68*
X132150002Y-55424997D03*
X132150002Y-56974997D03*
G04 #@! TD*
D54*
G04 #@! TO.C,C161*
X164400000Y-135400000D03*
X168800000Y-135400000D03*
G04 #@! TD*
D27*
G04 #@! TO.C,R26*
X113575000Y-72000000D03*
X115225000Y-72000000D03*
G04 #@! TD*
D40*
G04 #@! TO.C,R60*
X157500000Y-123425000D03*
X157500000Y-121775000D03*
G04 #@! TD*
D23*
G04 #@! TO.C,C102*
X98000000Y-149200000D03*
X98000000Y-147650000D03*
G04 #@! TD*
D70*
G04 #@! TO.C,C27*
X98100000Y-45700000D03*
X98100000Y-42100000D03*
G04 #@! TD*
D24*
G04 #@! TO.C,R52*
X123587500Y-148300000D03*
X125412500Y-148300000D03*
G04 #@! TD*
D27*
G04 #@! TO.C,R36*
X83075000Y-147200000D03*
X84725000Y-147200000D03*
G04 #@! TD*
D26*
G04 #@! TO.C,L4*
X131400000Y-48900000D03*
X123100000Y-48900000D03*
G04 #@! TD*
D59*
G04 #@! TO.C,C22*
X115400000Y-39700000D03*
X119000000Y-39700000D03*
G04 #@! TD*
D52*
G04 #@! TO.C,C14*
X101051992Y-40348008D03*
X102148008Y-39251992D03*
G04 #@! TD*
D20*
G04 #@! TO.C,C121*
X98000000Y-104925000D03*
X98000000Y-106475000D03*
G04 #@! TD*
D71*
G04 #@! TO.C,SW4*
X150500000Y-32600000D03*
X154600000Y-32600000D03*
X150500000Y-34200000D03*
X154600000Y-34200000D03*
D72*
X152550000Y-31975000D03*
G04 #@! TD*
D29*
G04 #@! TO.C,C88*
X84825000Y-89700000D03*
X86375000Y-89700000D03*
G04 #@! TD*
G04 #@! TO.C,C181*
X167225000Y-149500000D03*
X168775000Y-149500000D03*
G04 #@! TD*
D22*
G04 #@! TO.C,R11*
X99525000Y-51600000D03*
X97875000Y-51600000D03*
G04 #@! TD*
D73*
G04 #@! TO.C,U22*
X125600000Y-98600000D03*
X125600000Y-99100000D03*
X125600000Y-99600000D03*
X125600000Y-100100000D03*
X125600000Y-100600000D03*
X125600000Y-101100000D03*
D74*
X126300000Y-101800000D03*
X126800000Y-101800000D03*
X127300000Y-101800000D03*
X127800000Y-101800000D03*
X128300000Y-101800000D03*
X128800000Y-101800000D03*
D73*
X129500000Y-101100000D03*
X129500000Y-100600000D03*
X129500000Y-100100000D03*
X129500000Y-99600000D03*
X129500000Y-99100000D03*
X129500000Y-98600000D03*
D74*
X128800000Y-97900000D03*
X128300000Y-97900000D03*
X127800000Y-97900000D03*
X127300000Y-97900000D03*
X126800000Y-97900000D03*
X126300000Y-97900000D03*
G04 #@! TD*
D29*
G04 #@! TO.C,C118*
X87925000Y-104700000D03*
X89475000Y-104700000D03*
G04 #@! TD*
G04 #@! TO.C,C128*
X101925000Y-145161820D03*
X103475000Y-145161820D03*
G04 #@! TD*
D53*
G04 #@! TO.C,C167*
X145000000Y-133000000D03*
X140600000Y-133000000D03*
G04 #@! TD*
D20*
G04 #@! TO.C,C132*
X126800000Y-121800000D03*
X126800000Y-123350000D03*
G04 #@! TD*
D52*
G04 #@! TO.C,C31*
X100951992Y-52648008D03*
X102048008Y-51551992D03*
G04 #@! TD*
D23*
G04 #@! TO.C,C186*
X135100000Y-96075000D03*
X135100000Y-94525000D03*
G04 #@! TD*
D22*
G04 #@! TO.C,R19*
X135325000Y-53700000D03*
X133675000Y-53700000D03*
G04 #@! TD*
D39*
G04 #@! TO.C,L17*
X166900000Y-142700000D03*
X166900000Y-145700000D03*
G04 #@! TD*
D75*
G04 #@! TO.C,SW6*
X162800000Y-119300000D03*
X165300000Y-119300000D03*
X167800000Y-119300000D03*
X162800000Y-121700000D03*
X165300000Y-121700000D03*
X167800000Y-121700000D03*
G04 #@! TD*
D20*
G04 #@! TO.C,C163*
X160200000Y-136425000D03*
X160200000Y-137975000D03*
G04 #@! TD*
D40*
G04 #@! TO.C,R72*
X92800000Y-57225000D03*
X92800000Y-55575000D03*
G04 #@! TD*
D20*
G04 #@! TO.C,C85*
X105500000Y-62725000D03*
X105500000Y-64275000D03*
G04 #@! TD*
D76*
G04 #@! TO.C,L6*
X104100000Y-72050000D03*
X104100000Y-80350000D03*
G04 #@! TD*
D20*
G04 #@! TO.C,C170*
X154500000Y-139125000D03*
X154500000Y-140675000D03*
G04 #@! TD*
D28*
G04 #@! TO.C,C37*
X127758579Y-32400001D03*
X126208579Y-32400001D03*
G04 #@! TD*
D29*
G04 #@! TO.C,C98*
X87625000Y-67700000D03*
X89175000Y-67700000D03*
G04 #@! TD*
G04 #@! TO.C,C127*
X119425000Y-66500000D03*
X120975000Y-66500000D03*
G04 #@! TD*
D40*
G04 #@! TO.C,R57*
X152800000Y-123425000D03*
X152800000Y-121775000D03*
G04 #@! TD*
D23*
G04 #@! TO.C,C106*
X84200000Y-139675000D03*
X84200000Y-138125000D03*
G04 #@! TD*
G04 #@! TO.C,C119*
X74900000Y-133700000D03*
X74900000Y-132150000D03*
G04 #@! TD*
D27*
G04 #@! TO.C,R39*
X83475000Y-145100000D03*
X85125000Y-145100000D03*
G04 #@! TD*
G04 #@! TO.C,R3*
X192575000Y-55300000D03*
X194225000Y-55300000D03*
G04 #@! TD*
D23*
G04 #@! TO.C,C111*
X88400000Y-134475000D03*
X88400000Y-132925000D03*
G04 #@! TD*
G04 #@! TO.C,C140*
X117000000Y-123375000D03*
X117000000Y-121825000D03*
G04 #@! TD*
G04 #@! TO.C,C168*
X145700000Y-123375000D03*
X145700000Y-121825000D03*
G04 #@! TD*
D28*
G04 #@! TO.C,C123*
X92775000Y-130000000D03*
X91225000Y-130000000D03*
G04 #@! TD*
D20*
G04 #@! TO.C,C144*
X119075000Y-139420000D03*
X119075000Y-140970000D03*
G04 #@! TD*
D29*
G04 #@! TO.C,C62*
X145299998Y-60649998D03*
X146849998Y-60649998D03*
G04 #@! TD*
D77*
G04 #@! TO.C,U23*
X131300000Y-94112500D03*
X132100000Y-94112500D03*
X132900000Y-94112500D03*
X133700000Y-94112500D03*
X133700000Y-96487500D03*
X132900000Y-96487500D03*
X132100000Y-96487500D03*
X131300000Y-96487500D03*
G04 #@! TD*
D28*
G04 #@! TO.C,C89*
X102975000Y-82800000D03*
X101425000Y-82800000D03*
G04 #@! TD*
D20*
G04 #@! TO.C,C147*
X117500000Y-144325000D03*
X117500000Y-145875000D03*
G04 #@! TD*
D76*
G04 #@! TO.C,L2*
X138900000Y-61500000D03*
X138900000Y-69800000D03*
G04 #@! TD*
D29*
G04 #@! TO.C,C137*
X129525000Y-136800000D03*
X131075000Y-136800000D03*
G04 #@! TD*
D45*
G04 #@! TO.C,C57*
X140896016Y-54503984D03*
X139800000Y-55600000D03*
G04 #@! TD*
D28*
G04 #@! TO.C,C166*
X147000000Y-138300000D03*
X145450000Y-138300000D03*
G04 #@! TD*
D20*
G04 #@! TO.C,C91*
X85800000Y-69225000D03*
X85800000Y-70775000D03*
G04 #@! TD*
D29*
G04 #@! TO.C,C109*
X99550000Y-137700000D03*
X101100000Y-137700000D03*
G04 #@! TD*
D23*
G04 #@! TO.C,C116*
X99400000Y-117675000D03*
X99400000Y-116125000D03*
G04 #@! TD*
D64*
G04 #@! TO.C,R33*
X92912500Y-67500000D03*
X91087500Y-67500000D03*
G04 #@! TD*
D42*
G04 #@! TO.C,J6*
X82300000Y-94300000D03*
D43*
X82300000Y-96800000D03*
G04 #@! TD*
D29*
G04 #@! TO.C,C184*
X139925000Y-150000000D03*
X141475000Y-150000000D03*
G04 #@! TD*
D23*
G04 #@! TO.C,C115*
X74900000Y-136675000D03*
X74900000Y-135125000D03*
G04 #@! TD*
D45*
G04 #@! TO.C,C58*
X138248008Y-48051992D03*
X137151992Y-49148008D03*
G04 #@! TD*
D26*
G04 #@! TO.C,L5*
X97050000Y-85100000D03*
X88750000Y-85100000D03*
G04 #@! TD*
D24*
G04 #@! TO.C,R53*
X119287500Y-148800000D03*
X121112500Y-148800000D03*
G04 #@! TD*
D29*
G04 #@! TO.C,C17*
X100525000Y-32300000D03*
X102075000Y-32300000D03*
G04 #@! TD*
D22*
G04 #@! TO.C,R6*
X188200000Y-114400000D03*
X186550000Y-114400000D03*
G04 #@! TD*
D29*
G04 #@! TO.C,C190*
X97925000Y-54800000D03*
X99475000Y-54800000D03*
G04 #@! TD*
D23*
G04 #@! TO.C,C97*
X99400000Y-84275000D03*
X99400000Y-82725000D03*
G04 #@! TD*
G04 #@! TO.C,C113*
X93400000Y-134375000D03*
X93400000Y-132825000D03*
G04 #@! TD*
D20*
G04 #@! TO.C,C124*
X101000000Y-121050000D03*
X101000000Y-122600000D03*
G04 #@! TD*
D78*
G04 #@! TO.C,U3*
X190015000Y-117500000D03*
X190015000Y-118000000D03*
X190015000Y-118500000D03*
X190015000Y-119000000D03*
X190015000Y-119500000D03*
X190785000Y-119500000D03*
X190785000Y-119000000D03*
X190785000Y-118500000D03*
X190785000Y-118000000D03*
X190785000Y-117500000D03*
G04 #@! TD*
D27*
G04 #@! TO.C,R65*
X192575000Y-56800000D03*
X194225000Y-56800000D03*
G04 #@! TD*
D22*
G04 #@! TO.C,R18*
X135300000Y-55200000D03*
X133650000Y-55200000D03*
G04 #@! TD*
D28*
G04 #@! TO.C,C19*
X113075000Y-32300000D03*
X111525000Y-32300000D03*
G04 #@! TD*
D78*
G04 #@! TO.C,U7*
X193530000Y-51100000D03*
X193530000Y-51600000D03*
X193530000Y-52100000D03*
X193530000Y-52600000D03*
X193530000Y-53100000D03*
X194300000Y-53100000D03*
X194300000Y-52600000D03*
X194300000Y-52100000D03*
X194300000Y-51600000D03*
X194300000Y-51100000D03*
G04 #@! TD*
D20*
G04 #@! TO.C,C117*
X99600000Y-104925000D03*
X99600000Y-106475000D03*
G04 #@! TD*
D79*
G04 #@! TO.C,U8*
X190920000Y-145080000D03*
D80*
X191400000Y-145080000D03*
D81*
X190920000Y-144300000D03*
D82*
X190920000Y-145080000D03*
D83*
X191400000Y-145080000D03*
D84*
X191160000Y-144690000D03*
D85*
X191400000Y-144300000D03*
D86*
X190920000Y-144300000D03*
G04 #@! TD*
D39*
G04 #@! TO.C,L18*
X157600000Y-142700000D03*
X157600000Y-145700000D03*
G04 #@! TD*
D54*
G04 #@! TO.C,C83*
X113600000Y-68300000D03*
X118000000Y-68300000D03*
G04 #@! TD*
D42*
G04 #@! TO.C,J10*
X82300000Y-111700000D03*
D43*
X82300000Y-114200000D03*
G04 #@! TD*
D87*
G04 #@! TO.C,SW2*
X173900000Y-116450001D03*
X173900000Y-120549999D03*
X172300000Y-116450001D03*
X172300000Y-120549999D03*
D88*
X174525000Y-118500000D03*
G04 #@! TD*
D78*
G04 #@! TO.C,U2*
X190015000Y-120700000D03*
X190015000Y-121200000D03*
X190015000Y-121700000D03*
X190015000Y-122200000D03*
X190015000Y-122700000D03*
X190785000Y-122700000D03*
X190785000Y-122200000D03*
X190785000Y-121700000D03*
X190785000Y-121200000D03*
X190785000Y-120700000D03*
G04 #@! TD*
D44*
G04 #@! TO.C,R46*
X118600000Y-121775000D03*
X118600000Y-123425000D03*
G04 #@! TD*
D89*
G04 #@! TO.C,C133*
X114000000Y-133500000D03*
X114000000Y-129100000D03*
G04 #@! TD*
D90*
G04 #@! TO.C,SW1*
X193600000Y-145000000D03*
X199400000Y-145000000D03*
X193600000Y-149000000D03*
X199400000Y-149000000D03*
G04 #@! TD*
D28*
G04 #@! TO.C,C2*
X181375000Y-118800000D03*
X179825000Y-118800000D03*
G04 #@! TD*
D20*
G04 #@! TO.C,C141*
X127475000Y-139345000D03*
X127475000Y-140895000D03*
G04 #@! TD*
D28*
G04 #@! TO.C,C145*
X137075000Y-152000000D03*
X135525000Y-152000000D03*
G04 #@! TD*
D20*
G04 #@! TO.C,C120*
X99400000Y-119225000D03*
X99400000Y-120775000D03*
G04 #@! TD*
D23*
G04 #@! TO.C,C107*
X85700000Y-139675000D03*
X85700000Y-138125000D03*
G04 #@! TD*
D27*
G04 #@! TO.C,R17*
X156075000Y-43900000D03*
X157725000Y-43900000D03*
G04 #@! TD*
D23*
G04 #@! TO.C,C86*
X106000000Y-61250000D03*
X106000000Y-59700000D03*
G04 #@! TD*
D20*
G04 #@! TO.C,C162*
X148800000Y-121825000D03*
X148800000Y-123375000D03*
G04 #@! TD*
D57*
G04 #@! TO.C,J14*
X145250000Y-151150000D03*
D58*
X147750000Y-151150000D03*
G04 #@! TD*
D29*
G04 #@! TO.C,C156*
X107237500Y-149570710D03*
X108787500Y-149570710D03*
G04 #@! TD*
G04 #@! TO.C,C9*
X158350000Y-35300000D03*
X159900000Y-35300000D03*
G04 #@! TD*
D46*
G04 #@! TO.C,C32*
X103300000Y-54300000D03*
X103300000Y-57900000D03*
G04 #@! TD*
D39*
G04 #@! TO.C,L14*
X125600000Y-142900000D03*
X125600000Y-145900000D03*
G04 #@! TD*
D28*
G04 #@! TO.C,C76*
X120775000Y-63400000D03*
X119225000Y-63400000D03*
G04 #@! TD*
D56*
G04 #@! TO.C,C46*
X145951992Y-43951992D03*
X147048008Y-45048008D03*
G04 #@! TD*
D28*
G04 #@! TO.C,C8*
X156175000Y-36300000D03*
X154625000Y-36300000D03*
G04 #@! TD*
D76*
G04 #@! TO.C,L1*
X153299998Y-61449998D03*
X153299998Y-69749998D03*
G04 #@! TD*
D20*
G04 #@! TO.C,C142*
X123975000Y-139345000D03*
X123975000Y-140895000D03*
G04 #@! TD*
D24*
G04 #@! TO.C,R42*
X91187500Y-106300000D03*
X93012500Y-106300000D03*
G04 #@! TD*
D29*
G04 #@! TO.C,C99*
X91050000Y-65800000D03*
X92600000Y-65800000D03*
G04 #@! TD*
D27*
G04 #@! TO.C,R29*
X110475000Y-71900000D03*
X112125000Y-71900000D03*
G04 #@! TD*
D44*
G04 #@! TO.C,R58*
X150400000Y-121775000D03*
X150400000Y-123425000D03*
G04 #@! TD*
D20*
G04 #@! TO.C,C131*
X125200000Y-121800000D03*
X125200000Y-123350000D03*
G04 #@! TD*
D26*
G04 #@! TO.C,L11*
X96850000Y-112700000D03*
X88550000Y-112700000D03*
G04 #@! TD*
D70*
G04 #@! TO.C,C25*
X109200000Y-44200000D03*
X109200000Y-40600000D03*
G04 #@! TD*
D22*
G04 #@! TO.C,R25*
X120925000Y-65000000D03*
X119275000Y-65000000D03*
G04 #@! TD*
D44*
G04 #@! TO.C,R67*
X125600000Y-94675000D03*
X125600000Y-96325000D03*
G04 #@! TD*
D28*
G04 #@! TO.C,C175*
X153175000Y-151500000D03*
X151625000Y-151500000D03*
G04 #@! TD*
D23*
G04 #@! TO.C,C114*
X97100000Y-134400000D03*
X97100000Y-132850000D03*
G04 #@! TD*
G04 #@! TO.C,C7*
X160125000Y-33775000D03*
X160125000Y-32225000D03*
G04 #@! TD*
D64*
G04 #@! TO.C,R34*
X89212500Y-65900000D03*
X87387500Y-65900000D03*
G04 #@! TD*
D42*
G04 #@! TO.C,J8*
X82300000Y-74700000D03*
D43*
X82300000Y-77200000D03*
G04 #@! TD*
D42*
G04 #@! TO.C,J9*
X82300000Y-120400000D03*
D43*
X82300000Y-122900000D03*
G04 #@! TD*
D59*
G04 #@! TO.C,C3*
X181400000Y-146100000D03*
X185000000Y-146100000D03*
G04 #@! TD*
D20*
G04 #@! TO.C,C157*
X93300000Y-40925000D03*
X93300000Y-42475000D03*
G04 #@! TD*
D28*
G04 #@! TO.C,C152*
X108775000Y-151200000D03*
X107225000Y-151200000D03*
G04 #@! TD*
D91*
G04 #@! TO.C,J3*
X196196051Y-40996051D03*
D92*
X194400000Y-39200000D03*
X192603949Y-37403949D03*
X190807897Y-35607897D03*
G04 #@! TD*
D21*
G04 #@! TO.C,C40*
X175600000Y-139700000D03*
X172000000Y-139700000D03*
G04 #@! TD*
D57*
G04 #@! TO.C,J12*
X112750000Y-151150000D03*
D58*
X115250000Y-151150000D03*
G04 #@! TD*
D28*
G04 #@! TO.C,C151*
X120975000Y-152300000D03*
X119425000Y-152300000D03*
G04 #@! TD*
D20*
G04 #@! TO.C,C65*
X128850001Y-55425000D03*
X128850001Y-56975000D03*
G04 #@! TD*
D46*
G04 #@! TO.C,C15*
X104300000Y-40300000D03*
X104300000Y-43900000D03*
G04 #@! TD*
D71*
G04 #@! TO.C,SW3*
X183600000Y-43300000D03*
X187700000Y-43300000D03*
X183600000Y-44900000D03*
X187700000Y-44900000D03*
D72*
X185650000Y-42675000D03*
G04 #@! TD*
D23*
G04 #@! TO.C,C50*
X133700000Y-45775000D03*
X133700000Y-44225000D03*
G04 #@! TD*
D29*
G04 #@! TO.C,C92*
X75200000Y-89600000D03*
X76750000Y-89600000D03*
G04 #@! TD*
D28*
G04 #@! TO.C,C135*
X115975000Y-136500000D03*
X114425000Y-136500000D03*
G04 #@! TD*
G04 #@! TO.C,C79*
X112075000Y-66300000D03*
X110525000Y-66300000D03*
G04 #@! TD*
D57*
G04 #@! TO.C,J13*
X160700000Y-151150000D03*
D58*
X163200000Y-151150000D03*
G04 #@! TD*
D23*
G04 #@! TO.C,C185*
X131000000Y-100575000D03*
X131000000Y-99025000D03*
G04 #@! TD*
D52*
G04 #@! TO.C,C53*
X151051992Y-56348008D03*
X152148008Y-55251992D03*
G04 #@! TD*
D20*
G04 #@! TO.C,C160*
X155900000Y-121825000D03*
X155900000Y-123375000D03*
G04 #@! TD*
D29*
G04 #@! TO.C,C21*
X91000000Y-32400000D03*
X92550000Y-32400000D03*
G04 #@! TD*
D23*
G04 #@! TO.C,C93*
X99400000Y-87275000D03*
X99400000Y-85725000D03*
G04 #@! TD*
D20*
G04 #@! TO.C,C143*
X122375000Y-139345000D03*
X122375000Y-140895000D03*
G04 #@! TD*
D24*
G04 #@! TO.C,R43*
X94587500Y-104800000D03*
X96412500Y-104800000D03*
G04 #@! TD*
D93*
G04 #@! TO.C,R21*
X146799998Y-67037498D03*
X146799998Y-68862498D03*
G04 #@! TD*
D23*
G04 #@! TO.C,C103*
X93500000Y-149225000D03*
X93500000Y-147675000D03*
G04 #@! TD*
D39*
G04 #@! TO.C,L19*
X151100000Y-142800000D03*
X151100000Y-145800000D03*
G04 #@! TD*
D23*
G04 #@! TO.C,C178*
X160900000Y-145875000D03*
X160900000Y-144325000D03*
G04 #@! TD*
D22*
G04 #@! TO.C,R2*
X187700000Y-123600000D03*
X186050000Y-123600000D03*
G04 #@! TD*
D45*
G04 #@! TO.C,C56*
X141944024Y-55555976D03*
X140848008Y-56651992D03*
G04 #@! TD*
D23*
G04 #@! TO.C,C112*
X91900000Y-134375000D03*
X91900000Y-132825000D03*
G04 #@! TD*
D28*
G04 #@! TO.C,C38*
X134333578Y-32400001D03*
X132783578Y-32400001D03*
G04 #@! TD*
G04 #@! TO.C,C96*
X83375000Y-89700000D03*
X81825000Y-89700000D03*
G04 #@! TD*
D20*
G04 #@! TO.C,C177*
X163700000Y-144325000D03*
X163700000Y-145875000D03*
G04 #@! TD*
D29*
G04 #@! TO.C,C70*
X120675001Y-57100000D03*
X122225001Y-57100000D03*
G04 #@! TD*
D27*
G04 #@! TO.C,R30*
X116575000Y-72000000D03*
X118225000Y-72000000D03*
G04 #@! TD*
D45*
G04 #@! TO.C,C26*
X112548008Y-43951992D03*
X111451992Y-45048008D03*
G04 #@! TD*
D20*
G04 #@! TO.C,C12*
X77600000Y-39125000D03*
X77600000Y-40675000D03*
G04 #@! TD*
D42*
G04 #@! TO.C,J7*
X82250000Y-83300000D03*
D43*
X82250000Y-85800000D03*
G04 #@! TD*
D20*
G04 #@! TO.C,C179*
X147900000Y-144325000D03*
X147900000Y-145875000D03*
G04 #@! TD*
D29*
G04 #@! TO.C,C59*
X145299998Y-65450000D03*
X146849998Y-65450000D03*
G04 #@! TD*
D20*
G04 #@! TO.C,C172*
X149300000Y-139025000D03*
X149300000Y-140575000D03*
G04 #@! TD*
D26*
G04 #@! TO.C,L9*
X85550000Y-131900000D03*
X77250000Y-131900000D03*
G04 #@! TD*
D20*
G04 #@! TO.C,C171*
X153000000Y-139125000D03*
X153000000Y-140675000D03*
G04 #@! TD*
D28*
G04 #@! TO.C,C5*
X178075000Y-115600000D03*
X176525000Y-115600000D03*
G04 #@! TD*
D26*
G04 #@! TO.C,L3*
X131450001Y-63399998D03*
X123150001Y-63399998D03*
G04 #@! TD*
D59*
G04 #@! TO.C,C18*
X114500000Y-34100000D03*
X118100000Y-34100000D03*
G04 #@! TD*
D56*
G04 #@! TO.C,C44*
X146951992Y-42851992D03*
X148048008Y-43948008D03*
G04 #@! TD*
D24*
G04 #@! TO.C,R31*
X78387500Y-89900000D03*
X80212500Y-89900000D03*
G04 #@! TD*
D28*
G04 #@! TO.C,C174*
X156775000Y-151500000D03*
X155225000Y-151500000D03*
G04 #@! TD*
D24*
G04 #@! TO.C,R40*
X87900000Y-130200000D03*
X89725000Y-130200000D03*
G04 #@! TD*
D27*
G04 #@! TO.C,R15*
X157750000Y-72100000D03*
X159400000Y-72100000D03*
G04 #@! TD*
G04 #@! TO.C,R35*
X83475000Y-143600000D03*
X85125000Y-143600000D03*
G04 #@! TD*
D94*
G04 #@! TO.C,U1*
X200080000Y-92700000D03*
X197000000Y-92700000D03*
X200080000Y-92300000D03*
X197000000Y-92300000D03*
X200080000Y-91900000D03*
X197000000Y-91900000D03*
X200080000Y-91500000D03*
X197000000Y-91500000D03*
X200080000Y-91100000D03*
X197000000Y-91100000D03*
X200080000Y-90700000D03*
X197000000Y-90700000D03*
X200080000Y-90300000D03*
X197000000Y-90300000D03*
X200080000Y-89900000D03*
X197000000Y-89900000D03*
X200080000Y-89500000D03*
X197000000Y-89500000D03*
X200080000Y-89100000D03*
X197000000Y-89100000D03*
X200080000Y-88700000D03*
X197000000Y-88700000D03*
X200080000Y-88300000D03*
X197000000Y-88300000D03*
X200080000Y-87900000D03*
X197000000Y-87900000D03*
X200080000Y-87500000D03*
X197000000Y-87500000D03*
X200080000Y-87100000D03*
X197000000Y-87100000D03*
X200080000Y-86700000D03*
X197000000Y-86700000D03*
X200080000Y-86300000D03*
X197000000Y-86300000D03*
X200080000Y-85900000D03*
X197000000Y-85900000D03*
X200080000Y-85500000D03*
X197000000Y-85500000D03*
X200080000Y-85100000D03*
X197000000Y-85100000D03*
X200080000Y-84700000D03*
X197000000Y-84700000D03*
X200080000Y-84300000D03*
X197000000Y-84300000D03*
X200080000Y-83900000D03*
X197000000Y-83900000D03*
X200080000Y-83500000D03*
X197000000Y-83500000D03*
X200080000Y-83100000D03*
X197000000Y-83100000D03*
X200080000Y-82700000D03*
X197000000Y-82700000D03*
X200080000Y-82300000D03*
X197000000Y-82300000D03*
X200080000Y-81900000D03*
X197000000Y-81900000D03*
X200080000Y-81500000D03*
X197000000Y-81500000D03*
X200080000Y-81100000D03*
X197000000Y-81100000D03*
X200080000Y-80700000D03*
X197000000Y-80700000D03*
X200080000Y-80300000D03*
X197000000Y-80300000D03*
X200080000Y-79900000D03*
X197000000Y-79900000D03*
X200080000Y-79500000D03*
X197000000Y-79500000D03*
X200080000Y-79100000D03*
X197000000Y-79100000D03*
X200080000Y-78700000D03*
X197000000Y-78700000D03*
X200080000Y-78300000D03*
X197000000Y-78300000D03*
X200080000Y-77900000D03*
X197000000Y-77900000D03*
X200080000Y-77500000D03*
X197000000Y-77500000D03*
X200080000Y-77100000D03*
X197000000Y-77100000D03*
X200080000Y-76700000D03*
X197000000Y-76700000D03*
X200080000Y-76300000D03*
X197000000Y-76300000D03*
X200080000Y-75900000D03*
X197000000Y-75900000D03*
X200080000Y-75500000D03*
X197000000Y-75500000D03*
X200080000Y-75100000D03*
X197000000Y-75100000D03*
X200080000Y-74700000D03*
X197000000Y-74700000D03*
X200080000Y-74300000D03*
X197000000Y-74300000D03*
X200080000Y-73900000D03*
X197000000Y-73900000D03*
X200080000Y-73500000D03*
X197000000Y-73500000D03*
X200080000Y-73100000D03*
X197000000Y-73100000D03*
X166080000Y-92700000D03*
X163000000Y-92700000D03*
X166080000Y-92300000D03*
X163000000Y-92300000D03*
X166080000Y-91900000D03*
X163000000Y-91900000D03*
X166080000Y-91500000D03*
X163000000Y-91500000D03*
X166080000Y-91100000D03*
X163000000Y-91100000D03*
X166080000Y-90700000D03*
X163000000Y-90700000D03*
X166080000Y-90300000D03*
X163000000Y-90300000D03*
X166080000Y-89900000D03*
X163000000Y-89900000D03*
X166080000Y-89500000D03*
X163000000Y-89500000D03*
X166080000Y-89100000D03*
X163000000Y-89100000D03*
X166080000Y-88700000D03*
X163000000Y-88700000D03*
X166080000Y-88300000D03*
X163000000Y-88300000D03*
X166080000Y-87900000D03*
X163000000Y-87900000D03*
X166080000Y-87500000D03*
X163000000Y-87500000D03*
X166080000Y-87100000D03*
X163000000Y-87100000D03*
X166080000Y-86700000D03*
X163000000Y-86700000D03*
X166080000Y-86300000D03*
X163000000Y-86300000D03*
X166080000Y-85900000D03*
X163000000Y-85900000D03*
X166080000Y-85500000D03*
X163000000Y-85500000D03*
X166080000Y-85100000D03*
X163000000Y-85100000D03*
X166080000Y-84700000D03*
X163000000Y-84700000D03*
X166080000Y-84300000D03*
X163000000Y-84300000D03*
X166080000Y-83900000D03*
X163000000Y-83900000D03*
X166080000Y-83500000D03*
X163000000Y-83500000D03*
X166080000Y-83100000D03*
X163000000Y-83100000D03*
X166080000Y-82700000D03*
X163000000Y-82700000D03*
X166080000Y-82300000D03*
X163000000Y-82300000D03*
X166080000Y-81900000D03*
X163000000Y-81900000D03*
X166080000Y-81500000D03*
X163000000Y-81500000D03*
X166080000Y-81100000D03*
X163000000Y-81100000D03*
X166080000Y-80700000D03*
X163000000Y-80700000D03*
X166080000Y-80300000D03*
X163000000Y-80300000D03*
X166080000Y-79900000D03*
X163000000Y-79900000D03*
X166080000Y-79500000D03*
X163000000Y-79500000D03*
X166080000Y-79100000D03*
X163000000Y-79100000D03*
X166080000Y-78700000D03*
X163000000Y-78700000D03*
X166080000Y-78300000D03*
X163000000Y-78300000D03*
X166080000Y-77900000D03*
X163000000Y-77900000D03*
X166080000Y-77500000D03*
X163000000Y-77500000D03*
X166080000Y-77100000D03*
X163000000Y-77100000D03*
X166080000Y-76700000D03*
X163000000Y-76700000D03*
X166080000Y-76300000D03*
X163000000Y-76300000D03*
X166080000Y-75900000D03*
X163000000Y-75900000D03*
X166080000Y-75500000D03*
X163000000Y-75500000D03*
X166080000Y-75100000D03*
X163000000Y-75100000D03*
X166080000Y-74700000D03*
X163000000Y-74700000D03*
X166080000Y-74300000D03*
X163000000Y-74300000D03*
X166080000Y-73900000D03*
X163000000Y-73900000D03*
X166080000Y-73500000D03*
X163000000Y-73500000D03*
X166080000Y-73100000D03*
X163000000Y-73100000D03*
D95*
X198040000Y-61400000D03*
X198040000Y-109400000D03*
X165040000Y-61400000D03*
X165040000Y-109400000D03*
G04 #@! TD*
D96*
G04 #@! TO.C,CR1*
X190400000Y-125916000D03*
X190400000Y-125408000D03*
D97*
X190400000Y-124900000D03*
D96*
X190400000Y-124392000D03*
X190400000Y-123884000D03*
X189434800Y-123884000D03*
X189434800Y-124392000D03*
D97*
X189434800Y-124900000D03*
D96*
X189434800Y-125408000D03*
X189434800Y-125916000D03*
G04 #@! TD*
D22*
G04 #@! TO.C,R73*
X97025000Y-59600000D03*
X95375000Y-59600000D03*
G04 #@! TD*
D28*
G04 #@! TO.C,C20*
X102075000Y-33900000D03*
X100525000Y-33900000D03*
G04 #@! TD*
D20*
G04 #@! TO.C,C80*
X118400000Y-54625000D03*
X118400000Y-56175000D03*
G04 #@! TD*
G04 #@! TO.C,C95*
X85800000Y-66125000D03*
X85800000Y-67675000D03*
G04 #@! TD*
D44*
G04 #@! TO.C,R56*
X147300000Y-121775000D03*
X147300000Y-123425000D03*
G04 #@! TD*
D76*
G04 #@! TO.C,L8*
X79400000Y-61500000D03*
X79400000Y-69800000D03*
G04 #@! TD*
D98*
G04 #@! TO.C,U6*
X178275000Y-119049999D03*
X178275000Y-117150001D03*
X176000000Y-118100000D03*
G04 #@! TD*
D28*
G04 #@! TO.C,C81*
X111075000Y-68000000D03*
X109525000Y-68000000D03*
G04 #@! TD*
D69*
G04 #@! TO.C,U11*
X79725000Y-38800001D03*
X79725000Y-39750000D03*
X79725000Y-40699999D03*
X82000000Y-40699999D03*
X82000000Y-38800001D03*
G04 #@! TD*
D28*
G04 #@! TO.C,C39*
X140858579Y-32400000D03*
X139308579Y-32400000D03*
G04 #@! TD*
D44*
G04 #@! TO.C,R37*
X96500000Y-147625000D03*
X96500000Y-149275000D03*
G04 #@! TD*
D20*
G04 #@! TO.C,C164*
X161800000Y-136425000D03*
X161800000Y-137975000D03*
G04 #@! TD*
D28*
G04 #@! TO.C,C146*
X125275000Y-151600000D03*
X123725000Y-151600000D03*
G04 #@! TD*
D53*
G04 #@! TO.C,C104*
X81400000Y-140600000D03*
X77000000Y-140600000D03*
G04 #@! TD*
D20*
G04 #@! TO.C,C64*
X145099997Y-67174998D03*
X145099997Y-68724998D03*
G04 #@! TD*
D29*
G04 #@! TO.C,C11*
X90825000Y-36400000D03*
X92375000Y-36400000D03*
G04 #@! TD*
D45*
G04 #@! TO.C,C34*
X112948008Y-45751992D03*
X111851992Y-46848008D03*
G04 #@! TD*
D89*
G04 #@! TO.C,C54*
X151900000Y-48200000D03*
X151900000Y-43800000D03*
G04 #@! TD*
D28*
G04 #@! TO.C,C173*
X168775000Y-151100000D03*
X167225000Y-151100000D03*
G04 #@! TD*
D27*
G04 #@! TO.C,R14*
X148075000Y-39100000D03*
X149725000Y-39100000D03*
G04 #@! TD*
D28*
G04 #@! TO.C,C29*
X102400000Y-47400000D03*
X100850000Y-47400000D03*
G04 #@! TD*
D44*
G04 #@! TO.C,R55*
X159100000Y-121775000D03*
X159100000Y-123425000D03*
G04 #@! TD*
D22*
G04 #@! TO.C,R16*
X160725000Y-43900000D03*
X159075000Y-43900000D03*
G04 #@! TD*
M02*
