%TF.GenerationSoftware,KiCad,Pcbnew,10.0.1*%
%TF.CreationDate,2026-07-27T20:14:33+10:00*%
%TF.ProjectId,SF_01 Compute Board,53465f30-3120-4436-9f6d-707574652042,rev?*%
%TF.SameCoordinates,Original*%
%TF.FileFunction,Drillmap*%
%TF.FilePolarity,Positive*%
%FSLAX45Y45*%
G04 Gerber Fmt 4.5, Leading zero omitted, Abs format (unit mm)*
G04 Created by KiCad (PCBNEW 10.0.1) date 2026-07-27 20:14:33*
%MOMM*%
%LPD*%
G01*
G04 APERTURE LIST*
%ADD10C,0.200000*%
%ADD11C,0.050000*%
%ADD12C,0.100000*%
G04 APERTURE END LIST*
D10*
X7400000Y-4641680D02*
G75*
G02*
X8900000Y-3141680I1500000J0D01*
G01*
X7400000Y-14441680D02*
X7400000Y-4641680D01*
D11*
X9050000Y-5200000D02*
G75*
G02*
X8550000Y-5200000I-250000J0D01*
G01*
X8550000Y-5200000D02*
G75*
G02*
X9050000Y-5200000I250000J0D01*
G01*
X9050000Y-15200000D02*
G75*
G02*
X8550000Y-15200000I-250000J0D01*
G01*
X8550000Y-15200000D02*
G75*
G02*
X9050000Y-15200000I250000J0D01*
G01*
D10*
X8900000Y-3141680D02*
X18700000Y-3141680D01*
X8900000Y-15941680D02*
G75*
G02*
X7400000Y-14441680I0J1500000D01*
G01*
X18700000Y-3141680D02*
G75*
G02*
X20200000Y-4641680I0J-1500000D01*
G01*
X18700000Y-15941680D02*
X8900000Y-15941680D01*
D11*
X19050000Y-5200000D02*
G75*
G02*
X18550000Y-5200000I-250000J0D01*
G01*
X18550000Y-5200000D02*
G75*
G02*
X19050000Y-5200000I250000J0D01*
G01*
X19050000Y-15200000D02*
G75*
G02*
X18550000Y-15200000I-250000J0D01*
G01*
X18550000Y-15200000D02*
G75*
G02*
X19050000Y-15200000I250000J0D01*
G01*
D10*
X20200000Y-4641680D02*
X20200000Y-14441680D01*
X20200000Y-14441680D02*
G75*
G02*
X18700000Y-15941680I-1500000J0D01*
G01*
D12*
X19687000Y-4898500D02*
X19752000Y-4963500D01*
X19752000Y-4898500D02*
X19687000Y-4963500D01*
X19687000Y-5476500D02*
X19752000Y-5541500D01*
X19752000Y-5476500D02*
X19687000Y-5541500D01*
D10*
X7650777Y-16263164D02*
X7650777Y-16063164D01*
X7650777Y-16063164D02*
X7698396Y-16063164D01*
X7698396Y-16063164D02*
X7726967Y-16072688D01*
X7726967Y-16072688D02*
X7746015Y-16091735D01*
X7746015Y-16091735D02*
X7755539Y-16110783D01*
X7755539Y-16110783D02*
X7765062Y-16148878D01*
X7765062Y-16148878D02*
X7765062Y-16177449D01*
X7765062Y-16177449D02*
X7755539Y-16215545D01*
X7755539Y-16215545D02*
X7746015Y-16234592D01*
X7746015Y-16234592D02*
X7726967Y-16253640D01*
X7726967Y-16253640D02*
X7698396Y-16263164D01*
X7698396Y-16263164D02*
X7650777Y-16263164D01*
X7850777Y-16263164D02*
X7850777Y-16129830D01*
X7850777Y-16167926D02*
X7860301Y-16148878D01*
X7860301Y-16148878D02*
X7869824Y-16139354D01*
X7869824Y-16139354D02*
X7888872Y-16129830D01*
X7888872Y-16129830D02*
X7907920Y-16129830D01*
X7974586Y-16263164D02*
X7974586Y-16129830D01*
X7974586Y-16063164D02*
X7965062Y-16072688D01*
X7965062Y-16072688D02*
X7974586Y-16082211D01*
X7974586Y-16082211D02*
X7984110Y-16072688D01*
X7984110Y-16072688D02*
X7974586Y-16063164D01*
X7974586Y-16063164D02*
X7974586Y-16082211D01*
X8098396Y-16263164D02*
X8079348Y-16253640D01*
X8079348Y-16253640D02*
X8069824Y-16234592D01*
X8069824Y-16234592D02*
X8069824Y-16063164D01*
X8203158Y-16263164D02*
X8184110Y-16253640D01*
X8184110Y-16253640D02*
X8174586Y-16234592D01*
X8174586Y-16234592D02*
X8174586Y-16063164D01*
X8431729Y-16263164D02*
X8431729Y-16063164D01*
X8431729Y-16063164D02*
X8498396Y-16206021D01*
X8498396Y-16206021D02*
X8565063Y-16063164D01*
X8565063Y-16063164D02*
X8565063Y-16263164D01*
X8746015Y-16263164D02*
X8746015Y-16158402D01*
X8746015Y-16158402D02*
X8736491Y-16139354D01*
X8736491Y-16139354D02*
X8717444Y-16129830D01*
X8717444Y-16129830D02*
X8679348Y-16129830D01*
X8679348Y-16129830D02*
X8660301Y-16139354D01*
X8746015Y-16253640D02*
X8726967Y-16263164D01*
X8726967Y-16263164D02*
X8679348Y-16263164D01*
X8679348Y-16263164D02*
X8660301Y-16253640D01*
X8660301Y-16253640D02*
X8650777Y-16234592D01*
X8650777Y-16234592D02*
X8650777Y-16215545D01*
X8650777Y-16215545D02*
X8660301Y-16196497D01*
X8660301Y-16196497D02*
X8679348Y-16186973D01*
X8679348Y-16186973D02*
X8726967Y-16186973D01*
X8726967Y-16186973D02*
X8746015Y-16177449D01*
X8841253Y-16129830D02*
X8841253Y-16329830D01*
X8841253Y-16139354D02*
X8860301Y-16129830D01*
X8860301Y-16129830D02*
X8898396Y-16129830D01*
X8898396Y-16129830D02*
X8917444Y-16139354D01*
X8917444Y-16139354D02*
X8926967Y-16148878D01*
X8926967Y-16148878D02*
X8936491Y-16167926D01*
X8936491Y-16167926D02*
X8936491Y-16225068D01*
X8936491Y-16225068D02*
X8926967Y-16244116D01*
X8926967Y-16244116D02*
X8917444Y-16253640D01*
X8917444Y-16253640D02*
X8898396Y-16263164D01*
X8898396Y-16263164D02*
X8860301Y-16263164D01*
X8860301Y-16263164D02*
X8841253Y-16253640D01*
X9022205Y-16244116D02*
X9031729Y-16253640D01*
X9031729Y-16253640D02*
X9022205Y-16263164D01*
X9022205Y-16263164D02*
X9012682Y-16253640D01*
X9012682Y-16253640D02*
X9022205Y-16244116D01*
X9022205Y-16244116D02*
X9022205Y-16263164D01*
X9022205Y-16139354D02*
X9031729Y-16148878D01*
X9031729Y-16148878D02*
X9022205Y-16158402D01*
X9022205Y-16158402D02*
X9012682Y-16148878D01*
X9012682Y-16148878D02*
X9022205Y-16139354D01*
X9022205Y-16139354D02*
X9022205Y-16158402D01*
D12*
X7325000Y-16559180D02*
X7390000Y-16624180D01*
X7390000Y-16559180D02*
X7325000Y-16624180D01*
D10*
X7688872Y-16483164D02*
X7707920Y-16483164D01*
X7707920Y-16483164D02*
X7726967Y-16492688D01*
X7726967Y-16492688D02*
X7736491Y-16502211D01*
X7736491Y-16502211D02*
X7746015Y-16521259D01*
X7746015Y-16521259D02*
X7755539Y-16559354D01*
X7755539Y-16559354D02*
X7755539Y-16606973D01*
X7755539Y-16606973D02*
X7746015Y-16645068D01*
X7746015Y-16645068D02*
X7736491Y-16664116D01*
X7736491Y-16664116D02*
X7726967Y-16673640D01*
X7726967Y-16673640D02*
X7707920Y-16683164D01*
X7707920Y-16683164D02*
X7688872Y-16683164D01*
X7688872Y-16683164D02*
X7669824Y-16673640D01*
X7669824Y-16673640D02*
X7660301Y-16664116D01*
X7660301Y-16664116D02*
X7650777Y-16645068D01*
X7650777Y-16645068D02*
X7641253Y-16606973D01*
X7641253Y-16606973D02*
X7641253Y-16559354D01*
X7641253Y-16559354D02*
X7650777Y-16521259D01*
X7650777Y-16521259D02*
X7660301Y-16502211D01*
X7660301Y-16502211D02*
X7669824Y-16492688D01*
X7669824Y-16492688D02*
X7688872Y-16483164D01*
X7841253Y-16664116D02*
X7850777Y-16673640D01*
X7850777Y-16673640D02*
X7841253Y-16683164D01*
X7841253Y-16683164D02*
X7831729Y-16673640D01*
X7831729Y-16673640D02*
X7841253Y-16664116D01*
X7841253Y-16664116D02*
X7841253Y-16683164D01*
X8022205Y-16483164D02*
X7984110Y-16483164D01*
X7984110Y-16483164D02*
X7965062Y-16492688D01*
X7965062Y-16492688D02*
X7955539Y-16502211D01*
X7955539Y-16502211D02*
X7936491Y-16530783D01*
X7936491Y-16530783D02*
X7926967Y-16568878D01*
X7926967Y-16568878D02*
X7926967Y-16645068D01*
X7926967Y-16645068D02*
X7936491Y-16664116D01*
X7936491Y-16664116D02*
X7946015Y-16673640D01*
X7946015Y-16673640D02*
X7965062Y-16683164D01*
X7965062Y-16683164D02*
X8003158Y-16683164D01*
X8003158Y-16683164D02*
X8022205Y-16673640D01*
X8022205Y-16673640D02*
X8031729Y-16664116D01*
X8031729Y-16664116D02*
X8041253Y-16645068D01*
X8041253Y-16645068D02*
X8041253Y-16597449D01*
X8041253Y-16597449D02*
X8031729Y-16578402D01*
X8031729Y-16578402D02*
X8022205Y-16568878D01*
X8022205Y-16568878D02*
X8003158Y-16559354D01*
X8003158Y-16559354D02*
X7965062Y-16559354D01*
X7965062Y-16559354D02*
X7946015Y-16568878D01*
X7946015Y-16568878D02*
X7936491Y-16578402D01*
X7936491Y-16578402D02*
X7926967Y-16597449D01*
X8222205Y-16483164D02*
X8126967Y-16483164D01*
X8126967Y-16483164D02*
X8117443Y-16578402D01*
X8117443Y-16578402D02*
X8126967Y-16568878D01*
X8126967Y-16568878D02*
X8146015Y-16559354D01*
X8146015Y-16559354D02*
X8193634Y-16559354D01*
X8193634Y-16559354D02*
X8212682Y-16568878D01*
X8212682Y-16568878D02*
X8222205Y-16578402D01*
X8222205Y-16578402D02*
X8231729Y-16597449D01*
X8231729Y-16597449D02*
X8231729Y-16645068D01*
X8231729Y-16645068D02*
X8222205Y-16664116D01*
X8222205Y-16664116D02*
X8212682Y-16673640D01*
X8212682Y-16673640D02*
X8193634Y-16683164D01*
X8193634Y-16683164D02*
X8146015Y-16683164D01*
X8146015Y-16683164D02*
X8126967Y-16673640D01*
X8126967Y-16673640D02*
X8117443Y-16664116D01*
X8355539Y-16483164D02*
X8374586Y-16483164D01*
X8374586Y-16483164D02*
X8393634Y-16492688D01*
X8393634Y-16492688D02*
X8403158Y-16502211D01*
X8403158Y-16502211D02*
X8412682Y-16521259D01*
X8412682Y-16521259D02*
X8422205Y-16559354D01*
X8422205Y-16559354D02*
X8422205Y-16606973D01*
X8422205Y-16606973D02*
X8412682Y-16645068D01*
X8412682Y-16645068D02*
X8403158Y-16664116D01*
X8403158Y-16664116D02*
X8393634Y-16673640D01*
X8393634Y-16673640D02*
X8374586Y-16683164D01*
X8374586Y-16683164D02*
X8355539Y-16683164D01*
X8355539Y-16683164D02*
X8336491Y-16673640D01*
X8336491Y-16673640D02*
X8326967Y-16664116D01*
X8326967Y-16664116D02*
X8317443Y-16645068D01*
X8317443Y-16645068D02*
X8307920Y-16606973D01*
X8307920Y-16606973D02*
X8307920Y-16559354D01*
X8307920Y-16559354D02*
X8317443Y-16521259D01*
X8317443Y-16521259D02*
X8326967Y-16502211D01*
X8326967Y-16502211D02*
X8336491Y-16492688D01*
X8336491Y-16492688D02*
X8355539Y-16483164D01*
X8507920Y-16683164D02*
X8507920Y-16549830D01*
X8507920Y-16568878D02*
X8517444Y-16559354D01*
X8517444Y-16559354D02*
X8536491Y-16549830D01*
X8536491Y-16549830D02*
X8565063Y-16549830D01*
X8565063Y-16549830D02*
X8584110Y-16559354D01*
X8584110Y-16559354D02*
X8593634Y-16578402D01*
X8593634Y-16578402D02*
X8593634Y-16683164D01*
X8593634Y-16578402D02*
X8603158Y-16559354D01*
X8603158Y-16559354D02*
X8622205Y-16549830D01*
X8622205Y-16549830D02*
X8650777Y-16549830D01*
X8650777Y-16549830D02*
X8669825Y-16559354D01*
X8669825Y-16559354D02*
X8679348Y-16578402D01*
X8679348Y-16578402D02*
X8679348Y-16683164D01*
X8774586Y-16683164D02*
X8774586Y-16549830D01*
X8774586Y-16568878D02*
X8784110Y-16559354D01*
X8784110Y-16559354D02*
X8803158Y-16549830D01*
X8803158Y-16549830D02*
X8831729Y-16549830D01*
X8831729Y-16549830D02*
X8850777Y-16559354D01*
X8850777Y-16559354D02*
X8860301Y-16578402D01*
X8860301Y-16578402D02*
X8860301Y-16683164D01*
X8860301Y-16578402D02*
X8869825Y-16559354D01*
X8869825Y-16559354D02*
X8888872Y-16549830D01*
X8888872Y-16549830D02*
X8917444Y-16549830D01*
X8917444Y-16549830D02*
X8936491Y-16559354D01*
X8936491Y-16559354D02*
X8946015Y-16578402D01*
X8946015Y-16578402D02*
X8946015Y-16683164D01*
X9336491Y-16473640D02*
X9165063Y-16730783D01*
X9593634Y-16483164D02*
X9612682Y-16483164D01*
X9612682Y-16483164D02*
X9631729Y-16492688D01*
X9631729Y-16492688D02*
X9641253Y-16502211D01*
X9641253Y-16502211D02*
X9650777Y-16521259D01*
X9650777Y-16521259D02*
X9660301Y-16559354D01*
X9660301Y-16559354D02*
X9660301Y-16606973D01*
X9660301Y-16606973D02*
X9650777Y-16645068D01*
X9650777Y-16645068D02*
X9641253Y-16664116D01*
X9641253Y-16664116D02*
X9631729Y-16673640D01*
X9631729Y-16673640D02*
X9612682Y-16683164D01*
X9612682Y-16683164D02*
X9593634Y-16683164D01*
X9593634Y-16683164D02*
X9574587Y-16673640D01*
X9574587Y-16673640D02*
X9565063Y-16664116D01*
X9565063Y-16664116D02*
X9555539Y-16645068D01*
X9555539Y-16645068D02*
X9546015Y-16606973D01*
X9546015Y-16606973D02*
X9546015Y-16559354D01*
X9546015Y-16559354D02*
X9555539Y-16521259D01*
X9555539Y-16521259D02*
X9565063Y-16502211D01*
X9565063Y-16502211D02*
X9574587Y-16492688D01*
X9574587Y-16492688D02*
X9593634Y-16483164D01*
X9746015Y-16664116D02*
X9755539Y-16673640D01*
X9755539Y-16673640D02*
X9746015Y-16683164D01*
X9746015Y-16683164D02*
X9736491Y-16673640D01*
X9736491Y-16673640D02*
X9746015Y-16664116D01*
X9746015Y-16664116D02*
X9746015Y-16683164D01*
X9879348Y-16483164D02*
X9898396Y-16483164D01*
X9898396Y-16483164D02*
X9917444Y-16492688D01*
X9917444Y-16492688D02*
X9926968Y-16502211D01*
X9926968Y-16502211D02*
X9936491Y-16521259D01*
X9936491Y-16521259D02*
X9946015Y-16559354D01*
X9946015Y-16559354D02*
X9946015Y-16606973D01*
X9946015Y-16606973D02*
X9936491Y-16645068D01*
X9936491Y-16645068D02*
X9926968Y-16664116D01*
X9926968Y-16664116D02*
X9917444Y-16673640D01*
X9917444Y-16673640D02*
X9898396Y-16683164D01*
X9898396Y-16683164D02*
X9879348Y-16683164D01*
X9879348Y-16683164D02*
X9860301Y-16673640D01*
X9860301Y-16673640D02*
X9850777Y-16664116D01*
X9850777Y-16664116D02*
X9841253Y-16645068D01*
X9841253Y-16645068D02*
X9831729Y-16606973D01*
X9831729Y-16606973D02*
X9831729Y-16559354D01*
X9831729Y-16559354D02*
X9841253Y-16521259D01*
X9841253Y-16521259D02*
X9850777Y-16502211D01*
X9850777Y-16502211D02*
X9860301Y-16492688D01*
X9860301Y-16492688D02*
X9879348Y-16483164D01*
X10022206Y-16502211D02*
X10031729Y-16492688D01*
X10031729Y-16492688D02*
X10050777Y-16483164D01*
X10050777Y-16483164D02*
X10098396Y-16483164D01*
X10098396Y-16483164D02*
X10117444Y-16492688D01*
X10117444Y-16492688D02*
X10126968Y-16502211D01*
X10126968Y-16502211D02*
X10136491Y-16521259D01*
X10136491Y-16521259D02*
X10136491Y-16540307D01*
X10136491Y-16540307D02*
X10126968Y-16568878D01*
X10126968Y-16568878D02*
X10012682Y-16683164D01*
X10012682Y-16683164D02*
X10136491Y-16683164D01*
X10317444Y-16483164D02*
X10222206Y-16483164D01*
X10222206Y-16483164D02*
X10212682Y-16578402D01*
X10212682Y-16578402D02*
X10222206Y-16568878D01*
X10222206Y-16568878D02*
X10241253Y-16559354D01*
X10241253Y-16559354D02*
X10288872Y-16559354D01*
X10288872Y-16559354D02*
X10307920Y-16568878D01*
X10307920Y-16568878D02*
X10317444Y-16578402D01*
X10317444Y-16578402D02*
X10326968Y-16597449D01*
X10326968Y-16597449D02*
X10326968Y-16645068D01*
X10326968Y-16645068D02*
X10317444Y-16664116D01*
X10317444Y-16664116D02*
X10307920Y-16673640D01*
X10307920Y-16673640D02*
X10288872Y-16683164D01*
X10288872Y-16683164D02*
X10241253Y-16683164D01*
X10241253Y-16683164D02*
X10222206Y-16673640D01*
X10222206Y-16673640D02*
X10212682Y-16664116D01*
X10498396Y-16483164D02*
X10460301Y-16483164D01*
X10460301Y-16483164D02*
X10441253Y-16492688D01*
X10441253Y-16492688D02*
X10431729Y-16502211D01*
X10431729Y-16502211D02*
X10412682Y-16530783D01*
X10412682Y-16530783D02*
X10403158Y-16568878D01*
X10403158Y-16568878D02*
X10403158Y-16645068D01*
X10403158Y-16645068D02*
X10412682Y-16664116D01*
X10412682Y-16664116D02*
X10422206Y-16673640D01*
X10422206Y-16673640D02*
X10441253Y-16683164D01*
X10441253Y-16683164D02*
X10479349Y-16683164D01*
X10479349Y-16683164D02*
X10498396Y-16673640D01*
X10498396Y-16673640D02*
X10507920Y-16664116D01*
X10507920Y-16664116D02*
X10517444Y-16645068D01*
X10517444Y-16645068D02*
X10517444Y-16597449D01*
X10517444Y-16597449D02*
X10507920Y-16578402D01*
X10507920Y-16578402D02*
X10498396Y-16568878D01*
X10498396Y-16568878D02*
X10479349Y-16559354D01*
X10479349Y-16559354D02*
X10441253Y-16559354D01*
X10441253Y-16559354D02*
X10422206Y-16568878D01*
X10422206Y-16568878D02*
X10412682Y-16578402D01*
X10412682Y-16578402D02*
X10403158Y-16597449D01*
X10593634Y-16483164D02*
X10593634Y-16521259D01*
X10669825Y-16483164D02*
X10669825Y-16521259D01*
X10965063Y-16759354D02*
X10955539Y-16749830D01*
X10955539Y-16749830D02*
X10936491Y-16721259D01*
X10936491Y-16721259D02*
X10926968Y-16702211D01*
X10926968Y-16702211D02*
X10917444Y-16673640D01*
X10917444Y-16673640D02*
X10907920Y-16626021D01*
X10907920Y-16626021D02*
X10907920Y-16587926D01*
X10907920Y-16587926D02*
X10917444Y-16540307D01*
X10917444Y-16540307D02*
X10926968Y-16511735D01*
X10926968Y-16511735D02*
X10936491Y-16492688D01*
X10936491Y-16492688D02*
X10955539Y-16464116D01*
X10955539Y-16464116D02*
X10965063Y-16454592D01*
X11031730Y-16502211D02*
X11041253Y-16492688D01*
X11041253Y-16492688D02*
X11060301Y-16483164D01*
X11060301Y-16483164D02*
X11107920Y-16483164D01*
X11107920Y-16483164D02*
X11126968Y-16492688D01*
X11126968Y-16492688D02*
X11136491Y-16502211D01*
X11136491Y-16502211D02*
X11146015Y-16521259D01*
X11146015Y-16521259D02*
X11146015Y-16540307D01*
X11146015Y-16540307D02*
X11136491Y-16568878D01*
X11136491Y-16568878D02*
X11022206Y-16683164D01*
X11022206Y-16683164D02*
X11146015Y-16683164D01*
X11384110Y-16683164D02*
X11384110Y-16483164D01*
X11469825Y-16683164D02*
X11469825Y-16578402D01*
X11469825Y-16578402D02*
X11460301Y-16559354D01*
X11460301Y-16559354D02*
X11441253Y-16549830D01*
X11441253Y-16549830D02*
X11412682Y-16549830D01*
X11412682Y-16549830D02*
X11393634Y-16559354D01*
X11393634Y-16559354D02*
X11384110Y-16568878D01*
X11593634Y-16683164D02*
X11574587Y-16673640D01*
X11574587Y-16673640D02*
X11565063Y-16664116D01*
X11565063Y-16664116D02*
X11555539Y-16645068D01*
X11555539Y-16645068D02*
X11555539Y-16587926D01*
X11555539Y-16587926D02*
X11565063Y-16568878D01*
X11565063Y-16568878D02*
X11574587Y-16559354D01*
X11574587Y-16559354D02*
X11593634Y-16549830D01*
X11593634Y-16549830D02*
X11622206Y-16549830D01*
X11622206Y-16549830D02*
X11641253Y-16559354D01*
X11641253Y-16559354D02*
X11650777Y-16568878D01*
X11650777Y-16568878D02*
X11660301Y-16587926D01*
X11660301Y-16587926D02*
X11660301Y-16645068D01*
X11660301Y-16645068D02*
X11650777Y-16664116D01*
X11650777Y-16664116D02*
X11641253Y-16673640D01*
X11641253Y-16673640D02*
X11622206Y-16683164D01*
X11622206Y-16683164D02*
X11593634Y-16683164D01*
X11774587Y-16683164D02*
X11755539Y-16673640D01*
X11755539Y-16673640D02*
X11746015Y-16654592D01*
X11746015Y-16654592D02*
X11746015Y-16483164D01*
X11926968Y-16673640D02*
X11907920Y-16683164D01*
X11907920Y-16683164D02*
X11869825Y-16683164D01*
X11869825Y-16683164D02*
X11850777Y-16673640D01*
X11850777Y-16673640D02*
X11841253Y-16654592D01*
X11841253Y-16654592D02*
X11841253Y-16578402D01*
X11841253Y-16578402D02*
X11850777Y-16559354D01*
X11850777Y-16559354D02*
X11869825Y-16549830D01*
X11869825Y-16549830D02*
X11907920Y-16549830D01*
X11907920Y-16549830D02*
X11926968Y-16559354D01*
X11926968Y-16559354D02*
X11936491Y-16578402D01*
X11936491Y-16578402D02*
X11936491Y-16597449D01*
X11936491Y-16597449D02*
X11841253Y-16616497D01*
X12012682Y-16673640D02*
X12031730Y-16683164D01*
X12031730Y-16683164D02*
X12069825Y-16683164D01*
X12069825Y-16683164D02*
X12088872Y-16673640D01*
X12088872Y-16673640D02*
X12098396Y-16654592D01*
X12098396Y-16654592D02*
X12098396Y-16645068D01*
X12098396Y-16645068D02*
X12088872Y-16626021D01*
X12088872Y-16626021D02*
X12069825Y-16616497D01*
X12069825Y-16616497D02*
X12041253Y-16616497D01*
X12041253Y-16616497D02*
X12022206Y-16606973D01*
X12022206Y-16606973D02*
X12012682Y-16587926D01*
X12012682Y-16587926D02*
X12012682Y-16578402D01*
X12012682Y-16578402D02*
X12022206Y-16559354D01*
X12022206Y-16559354D02*
X12041253Y-16549830D01*
X12041253Y-16549830D02*
X12069825Y-16549830D01*
X12069825Y-16549830D02*
X12088872Y-16559354D01*
X12165063Y-16759354D02*
X12174587Y-16749830D01*
X12174587Y-16749830D02*
X12193634Y-16721259D01*
X12193634Y-16721259D02*
X12203158Y-16702211D01*
X12203158Y-16702211D02*
X12212682Y-16673640D01*
X12212682Y-16673640D02*
X12222206Y-16626021D01*
X12222206Y-16626021D02*
X12222206Y-16587926D01*
X12222206Y-16587926D02*
X12212682Y-16540307D01*
X12212682Y-16540307D02*
X12203158Y-16511735D01*
X12203158Y-16511735D02*
X12193634Y-16492688D01*
X12193634Y-16492688D02*
X12174587Y-16464116D01*
X12174587Y-16464116D02*
X12165063Y-16454592D01*
X12526968Y-16759354D02*
X12517444Y-16749830D01*
X12517444Y-16749830D02*
X12498396Y-16721259D01*
X12498396Y-16721259D02*
X12488872Y-16702211D01*
X12488872Y-16702211D02*
X12479349Y-16673640D01*
X12479349Y-16673640D02*
X12469825Y-16626021D01*
X12469825Y-16626021D02*
X12469825Y-16587926D01*
X12469825Y-16587926D02*
X12479349Y-16540307D01*
X12479349Y-16540307D02*
X12488872Y-16511735D01*
X12488872Y-16511735D02*
X12498396Y-16492688D01*
X12498396Y-16492688D02*
X12517444Y-16464116D01*
X12517444Y-16464116D02*
X12526968Y-16454592D01*
X12603158Y-16549830D02*
X12603158Y-16683164D01*
X12603158Y-16568878D02*
X12612682Y-16559354D01*
X12612682Y-16559354D02*
X12631730Y-16549830D01*
X12631730Y-16549830D02*
X12660301Y-16549830D01*
X12660301Y-16549830D02*
X12679349Y-16559354D01*
X12679349Y-16559354D02*
X12688872Y-16578402D01*
X12688872Y-16578402D02*
X12688872Y-16683164D01*
X12812682Y-16683164D02*
X12793634Y-16673640D01*
X12793634Y-16673640D02*
X12784111Y-16664116D01*
X12784111Y-16664116D02*
X12774587Y-16645068D01*
X12774587Y-16645068D02*
X12774587Y-16587926D01*
X12774587Y-16587926D02*
X12784111Y-16568878D01*
X12784111Y-16568878D02*
X12793634Y-16559354D01*
X12793634Y-16559354D02*
X12812682Y-16549830D01*
X12812682Y-16549830D02*
X12841253Y-16549830D01*
X12841253Y-16549830D02*
X12860301Y-16559354D01*
X12860301Y-16559354D02*
X12869825Y-16568878D01*
X12869825Y-16568878D02*
X12879349Y-16587926D01*
X12879349Y-16587926D02*
X12879349Y-16645068D01*
X12879349Y-16645068D02*
X12869825Y-16664116D01*
X12869825Y-16664116D02*
X12860301Y-16673640D01*
X12860301Y-16673640D02*
X12841253Y-16683164D01*
X12841253Y-16683164D02*
X12812682Y-16683164D01*
X12936492Y-16549830D02*
X13012682Y-16549830D01*
X12965063Y-16483164D02*
X12965063Y-16654592D01*
X12965063Y-16654592D02*
X12974587Y-16673640D01*
X12974587Y-16673640D02*
X12993634Y-16683164D01*
X12993634Y-16683164D02*
X13012682Y-16683164D01*
X13231730Y-16549830D02*
X13231730Y-16749830D01*
X13231730Y-16559354D02*
X13250777Y-16549830D01*
X13250777Y-16549830D02*
X13288873Y-16549830D01*
X13288873Y-16549830D02*
X13307920Y-16559354D01*
X13307920Y-16559354D02*
X13317444Y-16568878D01*
X13317444Y-16568878D02*
X13326968Y-16587926D01*
X13326968Y-16587926D02*
X13326968Y-16645068D01*
X13326968Y-16645068D02*
X13317444Y-16664116D01*
X13317444Y-16664116D02*
X13307920Y-16673640D01*
X13307920Y-16673640D02*
X13288873Y-16683164D01*
X13288873Y-16683164D02*
X13250777Y-16683164D01*
X13250777Y-16683164D02*
X13231730Y-16673640D01*
X13441253Y-16683164D02*
X13422206Y-16673640D01*
X13422206Y-16673640D02*
X13412682Y-16654592D01*
X13412682Y-16654592D02*
X13412682Y-16483164D01*
X13603158Y-16683164D02*
X13603158Y-16578402D01*
X13603158Y-16578402D02*
X13593634Y-16559354D01*
X13593634Y-16559354D02*
X13574587Y-16549830D01*
X13574587Y-16549830D02*
X13536492Y-16549830D01*
X13536492Y-16549830D02*
X13517444Y-16559354D01*
X13603158Y-16673640D02*
X13584111Y-16683164D01*
X13584111Y-16683164D02*
X13536492Y-16683164D01*
X13536492Y-16683164D02*
X13517444Y-16673640D01*
X13517444Y-16673640D02*
X13507920Y-16654592D01*
X13507920Y-16654592D02*
X13507920Y-16635545D01*
X13507920Y-16635545D02*
X13517444Y-16616497D01*
X13517444Y-16616497D02*
X13536492Y-16606973D01*
X13536492Y-16606973D02*
X13584111Y-16606973D01*
X13584111Y-16606973D02*
X13603158Y-16597449D01*
X13669825Y-16549830D02*
X13746015Y-16549830D01*
X13698396Y-16483164D02*
X13698396Y-16654592D01*
X13698396Y-16654592D02*
X13707920Y-16673640D01*
X13707920Y-16673640D02*
X13726968Y-16683164D01*
X13726968Y-16683164D02*
X13746015Y-16683164D01*
X13888873Y-16673640D02*
X13869825Y-16683164D01*
X13869825Y-16683164D02*
X13831730Y-16683164D01*
X13831730Y-16683164D02*
X13812682Y-16673640D01*
X13812682Y-16673640D02*
X13803158Y-16654592D01*
X13803158Y-16654592D02*
X13803158Y-16578402D01*
X13803158Y-16578402D02*
X13812682Y-16559354D01*
X13812682Y-16559354D02*
X13831730Y-16549830D01*
X13831730Y-16549830D02*
X13869825Y-16549830D01*
X13869825Y-16549830D02*
X13888873Y-16559354D01*
X13888873Y-16559354D02*
X13898396Y-16578402D01*
X13898396Y-16578402D02*
X13898396Y-16597449D01*
X13898396Y-16597449D02*
X13803158Y-16616497D01*
X14069825Y-16683164D02*
X14069825Y-16483164D01*
X14069825Y-16673640D02*
X14050777Y-16683164D01*
X14050777Y-16683164D02*
X14012682Y-16683164D01*
X14012682Y-16683164D02*
X13993634Y-16673640D01*
X13993634Y-16673640D02*
X13984111Y-16664116D01*
X13984111Y-16664116D02*
X13974587Y-16645068D01*
X13974587Y-16645068D02*
X13974587Y-16587926D01*
X13974587Y-16587926D02*
X13984111Y-16568878D01*
X13984111Y-16568878D02*
X13993634Y-16559354D01*
X13993634Y-16559354D02*
X14012682Y-16549830D01*
X14012682Y-16549830D02*
X14050777Y-16549830D01*
X14050777Y-16549830D02*
X14069825Y-16559354D01*
X14146015Y-16759354D02*
X14155539Y-16749830D01*
X14155539Y-16749830D02*
X14174587Y-16721259D01*
X14174587Y-16721259D02*
X14184111Y-16702211D01*
X14184111Y-16702211D02*
X14193634Y-16673640D01*
X14193634Y-16673640D02*
X14203158Y-16626021D01*
X14203158Y-16626021D02*
X14203158Y-16587926D01*
X14203158Y-16587926D02*
X14193634Y-16540307D01*
X14193634Y-16540307D02*
X14184111Y-16511735D01*
X14184111Y-16511735D02*
X14174587Y-16492688D01*
X14174587Y-16492688D02*
X14155539Y-16464116D01*
X14155539Y-16464116D02*
X14146015Y-16454592D01*
M02*
