M48
; DRILL file KiCad 10.0.1 date 2026-07-27T20:14:33
; FORMAT={-:-/ absolute / metric / decimal}
; #@! TF.CreationDate,2026-07-27T20:14:33+10:00
; #@! TF.GenerationSoftware,Kicad,Pcbnew,10.0.1
; #@! TF.FileFunction,Plated,1,4,PTH
FMAT,2
METRIC
; #@! TA.AperFunction,Plated,PTH,ViaDrill
T1C0.400
; #@! TA.AperFunction,Plated,PTH,ComponentDrill
T2C0.600
; #@! TA.AperFunction,Plated,PTH,ComponentDrill
T3C1.000
; #@! TA.AperFunction,Plated,PTH,ComponentDrill
T4C1.020
; #@! TA.AperFunction,Plated,PTH,ComponentDrill
T5C1.100
; #@! TA.AperFunction,Plated,PTH,ComponentDrill
T6C2.700
%
G90
G05
T1
X74.9Y-133.7
X76.0Y-44.0
X76.0Y-46.0
X76.0Y-48.0
X76.0Y-50.0
X76.0Y-52.0
X76.0Y-54.0
X76.0Y-136.7
X76.0Y-142.0
X76.0Y-144.0
X76.0Y-146.0
X76.0Y-148.0
X76.0Y-150.0
X76.1Y-138.1
X76.1Y-139.1
X76.8Y-138.1
X76.8Y-139.1
X76.9Y-136.7
X77.4Y-63.4
X77.4Y-64.5
X77.4Y-65.6
X77.4Y-66.7
X77.4Y-67.8
X77.4Y-73.3
X77.4Y-74.4
X77.4Y-75.5
X77.4Y-76.6
X77.4Y-77.7
X77.4Y-78.8
X77.4Y-79.9
X77.4Y-81.0
X77.4Y-82.1
X77.4Y-83.2
X77.4Y-84.3
X77.4Y-85.4
X77.4Y-86.4
X77.5Y-88.1
X77.5Y-91.1
X77.5Y-92.2
X77.5Y-93.3
X77.5Y-94.4
X77.5Y-95.5
X77.5Y-96.6
X77.5Y-97.7
X77.5Y-98.8
X77.5Y-99.9
X77.5Y-101.0
X77.5Y-102.1
X77.5Y-103.2
X77.5Y-104.3
X77.5Y-105.4
X77.5Y-106.5
X77.5Y-107.6
X77.5Y-108.7
X77.5Y-109.8
X77.5Y-110.9
X77.5Y-112.0
X77.5Y-113.1
X77.5Y-114.2
X77.5Y-115.3
X77.5Y-116.4
X77.5Y-117.6
X77.5Y-118.7
X77.5Y-119.8
X77.5Y-120.9
X77.5Y-122.0
X77.6Y-37.9
X77.7Y-58.2
X78.0Y-44.0
X78.0Y-46.0
X78.0Y-48.0
X78.0Y-50.0
X78.0Y-52.0
X78.0Y-54.0
X78.0Y-135.0
X78.0Y-137.0
X78.0Y-139.0
X78.0Y-142.0
X78.0Y-144.0
X78.0Y-146.0
X78.0Y-148.0
X78.0Y-150.0
X78.0Y-152.0
X78.1Y-87.2
X78.2Y-59.1
X78.4Y-41.6
X78.4Y-42.6
X79.0Y-65.0
X79.0Y-67.0
X79.0Y-75.0
X79.0Y-77.0
X79.0Y-79.0
X79.0Y-81.0
X79.0Y-83.0
X79.0Y-85.0
X79.0Y-92.0
X79.0Y-94.0
X79.0Y-96.0
X79.0Y-98.0
X79.0Y-100.0
X79.0Y-102.0
X79.0Y-104.0
X79.0Y-106.0
X79.0Y-108.0
X79.0Y-110.0
X79.0Y-112.0
X79.0Y-114.0
X79.0Y-117.0
X79.0Y-119.0
X79.0Y-121.0
X79.2Y-37.1
X79.3Y-59.1
X79.4Y-41.6
X79.4Y-42.6
X80.0Y-44.0
X80.0Y-46.0
X80.0Y-48.0
X80.0Y-50.0
X80.0Y-52.0
X80.0Y-129.0
X80.0Y-133.0
X80.0Y-135.0
X80.0Y-137.0
X80.0Y-144.0
X80.0Y-146.0
X80.0Y-148.0
X80.0Y-150.0
X80.0Y-152.0
X80.0Y-154.0
X80.4Y-59.1
X81.0Y-39.8
X81.4Y-57.6
X81.5Y-59.1
X81.6Y-88.1
X81.6Y-56.6
X82.0Y-44.0
X82.0Y-129.0
X82.0Y-133.0
X82.0Y-135.0
X82.0Y-137.0
X82.0Y-144.0
X82.0Y-146.0
X82.0Y-148.0
X82.0Y-150.0
X82.0Y-152.0
X82.0Y-154.0
X82.0Y-156.0
X82.3Y-138.1
X82.6Y-59.1
X82.6Y-88.1
X83.0Y-138.1
X83.563Y-59.163
X83.6Y-88.1
X83.7Y-35.2
X83.7Y-36.1
X83.7Y-37.0
X83.7Y-37.9
X84.0Y-40.0
X84.0Y-49.0
X84.0Y-51.0
X84.0Y-53.0
X84.0Y-57.0
X84.0Y-129.0
X84.0Y-135.0
X84.0Y-137.0
X84.0Y-150.0
X84.0Y-152.0
X84.0Y-154.0
X84.0Y-156.0
X84.0Y-158.0
X84.27Y-59.87
X84.6Y-88.1
X84.977Y-60.577
X85.7Y-61.3
X86.0Y-33.0
X86.0Y-35.0
X86.0Y-37.0
X86.0Y-47.0
X86.0Y-49.0
X86.0Y-129.0
X86.0Y-135.0
X86.0Y-137.0
X86.0Y-148.0
X86.0Y-156.0
X86.0Y-158.0
X86.4Y-143.6
X86.5Y-55.9
X86.7Y-61.3
X87.0Y-146.4
X87.2Y-110.3
X87.6Y-69.1
X87.6Y-70.1
X87.7Y-61.3
X87.861Y-59.276
X88.0Y-33.0
X88.0Y-35.0
X88.0Y-45.0
X88.0Y-47.0
X88.0Y-109.7
X88.0Y-148.0
X88.0Y-156.0
X88.0Y-158.0
X88.2Y-138.046
X88.2Y-139.0
X88.21Y-139.92
X88.21Y-140.91
X88.22Y-141.9
X88.456Y-58.545
X88.6Y-69.1
X88.6Y-70.1
X88.613Y-59.818
X88.7Y-61.3
X88.8Y-109.0
X89.0Y-77.0
X89.2Y-59.1
X89.2Y-138.1
X89.2Y-139.001
X89.21Y-139.92
X89.21Y-140.91
X89.21Y-141.9
X89.3Y-57.3
X89.8Y-61.3
X89.9Y-39.5
X90.0Y-45.0
X90.0Y-47.0
X90.0Y-49.0
X90.0Y-117.0
X90.0Y-119.0
X90.0Y-148.0
X90.0Y-156.0
X90.0Y-158.0
X90.1Y-38.5
X90.1Y-42.4
X90.2Y-138.1
X90.21Y-139.92
X90.21Y-140.91
X90.261Y-139.001
X90.3Y-57.6
X90.3Y-59.5
X90.5Y-41.0
X90.8Y-35.2
X90.9Y-61.3
X91.0Y-75.0
X91.0Y-77.0
X91.3Y-141.9
X91.8Y-128.7
X92.0Y-41.2
X92.0Y-42.2
X92.0Y-45.0
X92.0Y-47.0
X92.0Y-49.0
X92.0Y-51.0
X92.0Y-61.3
X92.0Y-115.0
X92.0Y-117.0
X92.0Y-124.0
X92.0Y-126.0
X92.0Y-148.0
X92.0Y-150.0
X92.0Y-152.0
X92.0Y-154.0
X92.0Y-156.0
X92.0Y-158.0
X92.2Y-138.1
X92.2Y-139.1
X92.4Y-40.2
X92.5Y-109.0
X92.6Y-65.8
X92.8Y-128.7
X92.9Y-109.8
X93.0Y-61.3
X93.0Y-73.0
X93.0Y-75.0
X93.0Y-77.0
X93.18Y-141.383
X93.2Y-138.1
X93.2Y-139.1
X93.2Y-140.09
X93.2Y-142.09
X93.4Y-109.0
X94.0Y-45.0
X94.0Y-47.0
X94.0Y-49.0
X94.0Y-115.0
X94.0Y-117.0
X94.0Y-122.0
X94.0Y-124.0
X94.0Y-152.0
X94.0Y-154.0
X94.0Y-156.0
X94.0Y-158.0
X94.05Y-52.85
X94.1Y-55.3
X94.1Y-61.3
X94.2Y-146.6
X94.3Y-141.1
X94.4Y-59.6
X94.8Y-57.9
X94.8Y-142.0
X94.9Y-32.7
X95.0Y-46.3
X95.0Y-51.6
X95.0Y-71.0
X95.0Y-73.0
X95.0Y-75.0
X95.0Y-77.0
X95.1Y-52.8
X95.1Y-55.8
X95.1Y-61.3
X95.2Y-137.81
X95.2Y-138.8
X95.2Y-139.79
X95.2Y-140.78
X95.3Y-54.8
X95.4Y-120.9
X95.8Y-32.7
X96.0Y-69.0
X96.0Y-70.0
X96.0Y-117.0
X96.0Y-152.0
X96.0Y-154.0
X96.0Y-156.0
X96.0Y-158.0
X96.1Y-61.3
X96.17Y-137.81
X96.17Y-138.8
X96.17Y-139.79
X96.3Y-120.9
X96.406Y-140.464
X96.7Y-32.7
X96.9Y-145.3
X97.025Y-57.725
X97.1Y-61.3
X97.17Y-137.81
X97.17Y-138.8
X97.17Y-139.79
X97.17Y-140.78
X97.2Y-35.5
X97.2Y-120.9
X97.25Y-66.0
X97.325Y-40.7
X97.525Y-56.325
X97.6Y-32.7
X97.607Y-145.28
X97.8Y-58.3
X97.9Y-115.7
X97.9Y-116.6
X98.0Y-61.0
X98.0Y-150.3
X98.0Y-152.0
X98.0Y-154.0
X98.0Y-156.0
X98.0Y-158.0
X98.1Y-35.5
X98.1Y-120.9
X98.17Y-137.81
X98.17Y-138.8
X98.17Y-139.79
X98.17Y-140.78
X98.3Y-145.5
X98.5Y-56.3
X98.6Y-32.3
X98.6Y-109.1
X98.778Y-60.222
X98.9Y-39.7
X99.0Y-33.6
X99.1Y-34.5
X99.2Y-81.4
X99.4Y-85.7
X99.5Y-32.3
X99.5Y-45.0
X99.5Y-45.9
X99.5Y-109.1
X99.6Y-59.8
X100.0Y-53.4
X100.0Y-38.9
X100.0Y-125.0
X100.0Y-152.0
X100.0Y-154.0
X100.0Y-156.0
X100.0Y-158.0
X100.2Y-81.4
X100.263Y-59.3
X100.4Y-109.1
X100.5Y-45.9
X100.5Y-54.8
X100.7Y-80.5
X100.755Y-53.909
X101.0Y-37.9
X101.0Y-74.0
X101.1Y-59.5
X101.2Y-81.4
X101.4Y-45.9
X101.4Y-149.3
X101.6Y-32.3
X101.7Y-41.5
X101.7Y-138.7
X101.9Y-58.2
X102.0Y-52.8
X102.0Y-53.7
X102.0Y-57.3
X102.0Y-152.0
X102.0Y-154.0
X102.0Y-156.0
X102.0Y-158.0
X102.195Y-138.205
X102.2Y-37.6
X102.2Y-38.4
X102.2Y-59.5
X102.4Y-40.8
X102.7Y-139.1
X102.7Y-140.1
X103.0Y-108.0
X103.0Y-110.0
X103.1Y-43.4
X103.2Y-42.5
X103.3Y-59.5
X103.4Y-139.1
X103.4Y-140.1
X104.0Y-148.0
X104.0Y-150.0
X104.0Y-152.0
X104.0Y-154.0
X104.0Y-157.0
X104.0Y-158.0
X104.25Y-59.0
X104.6Y-145.1
X104.6Y-146.8
X104.8Y-53.3
X104.8Y-54.3
X105.0Y-106.0
X105.0Y-108.0
X105.0Y-110.0
X105.0Y-112.0
X105.2Y-33.5
X105.3Y-37.4
X105.3Y-38.3
X105.4Y-56.6
X105.5Y-47.675
X105.6Y-43.0
X105.6Y-43.9
X105.6Y-51.575
X105.6Y-52.475
X105.7Y-39.6
X105.7Y-40.5
X105.8Y-50.0
X105.9Y-48.7
X106.0Y-152.0
X106.0Y-154.0
X106.0Y-157.0
X106.0Y-158.0
X106.2Y-33.5
X106.2Y-37.4
X106.2Y-38.3
X106.2Y-55.8
X106.5Y-47.675
X106.5Y-51.575
X106.5Y-52.475
X106.9Y-55.3
X107.1Y-32.9
X107.2Y-34.7
X107.2Y-38.0
X107.2Y-152.4
X107.4Y-54.6
X107.4Y-67.2
X107.5Y-142.7
X107.6Y-40.1
X107.6Y-41.1
X107.8Y-43.6
X107.8Y-44.5
X107.9Y-51.1
X108.0Y-154.0
X108.0Y-158.0
X108.1Y-32.9
X108.1Y-53.8
X108.2Y-34.7
X108.2Y-38.0
X108.3Y-66.8
X108.4Y-48.0
X108.637Y-77.231
X109.0Y-53.3
X109.203Y-76.666
X109.203Y-77.797
X109.769Y-76.1
X109.769Y-77.231
X109.769Y-78.363
X110.0Y-53.2
X110.0Y-149.8
X110.0Y-154.0
X110.0Y-156.0
X110.0Y-158.0
X110.334Y-75.534
X110.334Y-76.666
X110.334Y-77.797
X110.4Y-73.0
X110.6Y-59.7
X110.6Y-60.7
X110.6Y-40.8
X110.6Y-41.8
X110.6Y-44.2
X110.611Y-62.749
X110.611Y-63.739
X110.611Y-64.729
X110.62Y-54.7
X110.62Y-55.7
X110.62Y-56.7
X110.62Y-57.67
X110.9Y-76.1
X110.9Y-77.231
X111.0Y-53.2
X111.0Y-75.0
X111.1Y-69.2
X111.2Y-52.3
X111.236Y-43.564
X111.4Y-48.3
X111.4Y-73.0
X111.466Y-76.666
X111.566Y-74.434
X111.566Y-75.566
X111.6Y-59.7
X111.6Y-60.7
X111.601Y-62.739
X111.601Y-63.739
X111.601Y-64.739
X111.61Y-54.7
X111.61Y-55.7
X111.61Y-56.7
X111.61Y-57.67
X111.9Y-51.9
X112.0Y-108.0
X112.0Y-110.0
X112.0Y-112.0
X112.0Y-114.0
X112.0Y-116.0
X112.0Y-154.0
X112.0Y-156.0
X112.0Y-158.0
X112.131Y-73.869
X112.131Y-75.0
X112.131Y-76.131
X112.365Y-47.668
X112.5Y-51.3
X112.59Y-59.7
X112.591Y-62.739
X112.591Y-63.739
X112.591Y-64.739
X112.6Y-54.7
X112.6Y-55.7
X112.6Y-56.7
X112.6Y-57.67
X112.697Y-74.434
X112.697Y-75.566
X112.802Y-48.607
X112.9Y-58.6
X112.9Y-61.2
X113.1Y-50.8
X113.263Y-75.0
X113.282Y-47.803
X113.5Y-63.8
X113.51Y-62.8
X113.51Y-64.79
X113.59Y-54.7
X113.59Y-55.7
X113.59Y-56.7
X113.59Y-57.67
X113.6Y-59.72
X113.6Y-122.8
X113.6Y-123.8
X113.6Y-124.8
X113.6Y-125.8
X113.6Y-126.8
X113.9Y-70.1
X114.0Y-47.4
X114.0Y-108.0
X114.0Y-110.0
X114.0Y-112.0
X114.0Y-114.0
X114.0Y-154.0
X114.0Y-156.0
X114.0Y-158.0
X114.1Y-32.9
X114.5Y-62.8
X114.59Y-59.7
X114.6Y-122.8
X114.6Y-123.8
X114.6Y-124.8
X114.6Y-125.8
X114.6Y-126.8
X114.7Y-49.5
X114.751Y-103.507
X114.751Y-104.307
X114.751Y-105.107
X114.8Y-32.0
X114.867Y-46.951
X115.0Y-57.9
X115.4Y-46.1
X115.5Y-33.1
X115.5Y-38.2
X115.5Y-129.9
X115.5Y-130.9
X115.5Y-131.9
X115.5Y-132.9
X115.5Y-133.9
X115.5Y-134.9
X115.551Y-103.507
X115.551Y-104.307
X115.551Y-105.107
X115.7Y-142.9
X115.8Y-32.0
X115.8Y-49.0
X116.0Y-154.0
X116.0Y-156.0
X116.0Y-158.0
X116.351Y-104.307
X116.351Y-103.507
X116.351Y-105.107
X116.4Y-46.1
X116.4Y-48.3
X116.5Y-38.2
X116.5Y-129.9
X116.5Y-130.9
X116.5Y-131.9
X116.5Y-132.9
X116.5Y-133.9
X116.5Y-134.9
X116.6Y-70.9
X116.8Y-65.8
X116.8Y-66.8
X117.0Y-120.9
X117.2Y-40.0
X117.2Y-103.6
X117.2Y-104.4
X117.2Y-105.2
X117.3Y-32.8
X117.3Y-46.1
X117.4Y-48.3
X117.4Y-143.0
X117.6Y-38.2
X117.7Y-60.0
X117.8Y-65.8
X117.8Y-66.8
X117.9Y-63.4
X118.0Y-104.4
X118.0Y-103.6
X118.0Y-105.2
X118.0Y-154.0
X118.0Y-156.0
X118.0Y-158.0
X118.1Y-150.9
X118.2Y-32.8
X118.2Y-60.9
X118.4Y-46.1
X118.4Y-48.3
X118.4Y-57.1
X118.4Y-58.4
X118.5Y-38.2
X118.6Y-120.9
X118.7Y-56.3
X118.7Y-124.8
X118.8Y-103.6
X118.8Y-105.2
X118.8Y-104.4
X118.8Y-131.4
X118.8Y-132.4
X118.8Y-133.4
X118.8Y-134.4
X118.8Y-135.4
X118.979Y-57.676
X119.1Y-32.8
X119.3Y-46.1
X119.3Y-56.9
X119.4Y-38.2
X119.4Y-48.3
X119.6Y-104.4
X119.6Y-103.6
X119.6Y-105.2
X119.7Y-57.8
X119.8Y-131.4
X119.8Y-132.4
X119.8Y-133.4
X119.8Y-134.4
X119.8Y-135.4
X120.0Y-154.0
X120.0Y-157.0
X120.0Y-158.0
X120.1Y-67.6
X120.1Y-120.9
X120.3Y-48.3
X120.4Y-43.8
X120.7Y-60.3
X120.8Y-131.4
X120.8Y-132.4
X120.8Y-133.4
X120.8Y-134.4
X120.8Y-135.4
X120.936Y-47.664
X121.0Y-153.6
X121.1Y-43.2
X121.3Y-46.8
X121.8Y-131.4
X121.8Y-132.4
X121.8Y-133.4
X121.8Y-134.4
X121.8Y-135.4
X121.9Y-42.7
X121.9Y-45.9
X122.0Y-93.0
X122.0Y-95.0
X122.0Y-97.0
X122.0Y-99.0
X122.0Y-101.0
X122.0Y-103.0
X122.0Y-105.0
X122.0Y-107.0
X122.0Y-109.0
X122.0Y-111.0
X122.0Y-127.9
X122.0Y-154.0
X122.0Y-157.0
X122.0Y-158.0
X122.2Y-58.6
X122.3Y-59.9
X122.3Y-60.7
X122.3Y-61.5
X122.3Y-62.3
X122.3Y-69.6
X122.7Y-45.2
X122.8Y-124.3
X122.8Y-131.4
X122.8Y-132.4
X122.8Y-133.4
X122.8Y-134.4
X122.8Y-135.4
X122.9Y-42.7
X123.1Y-59.9
X123.1Y-60.7
X123.1Y-61.5
X123.1Y-62.3
X123.2Y-58.6
X123.7Y-45.2
X123.7Y-153.3
X123.8Y-131.4
X123.8Y-132.4
X123.8Y-133.4
X123.8Y-134.4
X123.8Y-135.4
X123.9Y-42.7
X123.9Y-59.9
X123.9Y-60.7
X123.9Y-61.5
X123.9Y-62.3
X124.0Y-91.0
X124.0Y-93.0
X124.0Y-97.0
X124.0Y-99.0
X124.0Y-101.0
X124.0Y-103.0
X124.0Y-105.0
X124.0Y-107.0
X124.0Y-109.0
X124.0Y-111.0
X124.0Y-113.0
X124.0Y-154.0
X124.0Y-158.0
X124.059Y-39.1
X124.1Y-52.3
X124.5Y-51.5
X124.5Y-89.6
X124.7Y-45.2
X124.7Y-59.9
X124.7Y-60.7
X124.7Y-61.5
X124.7Y-62.3
X124.8Y-32.5
X124.8Y-131.4
X124.8Y-132.4
X124.8Y-133.4
X124.8Y-134.4
X124.8Y-135.4
X124.9Y-42.7
X125.0Y-47.6
X125.0Y-48.4
X125.0Y-49.2
X125.0Y-50.0
X125.0Y-52.0
X125.2Y-120.7
X125.4Y-102.3
X125.7Y-45.2
X125.8Y-47.6
X125.8Y-48.4
X125.8Y-49.2
X125.8Y-50.0
X125.8Y-127.0
X125.8Y-131.4
X125.8Y-132.4
X125.8Y-133.4
X125.8Y-134.4
X125.8Y-135.4
X125.9Y-42.7
X126.0Y-89.0
X126.0Y-91.0
X126.0Y-105.0
X126.0Y-107.0
X126.0Y-109.0
X126.0Y-111.0
X126.0Y-113.0
X126.0Y-154.0
X126.0Y-156.0
X126.0Y-158.0
X126.6Y-47.6
X126.6Y-48.4
X126.6Y-49.2
X126.6Y-50.0
X126.7Y-150.0
X126.8Y-45.2
X126.8Y-120.7
X126.8Y-131.4
X126.8Y-132.4
X126.8Y-133.4
X126.8Y-134.4
X126.8Y-135.4
X126.9Y-42.7
X127.4Y-47.6
X127.4Y-48.4
X127.4Y-49.2
X127.4Y-50.0
X127.7Y-69.4
X127.7Y-70.2
X127.7Y-71.0
X127.7Y-71.8
X127.759Y-33.8
X127.8Y-131.4
X127.8Y-132.4
X127.8Y-133.4
X127.9Y-42.7
X127.9Y-45.2
X128.0Y-89.0
X128.0Y-91.0
X128.0Y-93.0
X128.0Y-105.0
X128.0Y-107.0
X128.0Y-109.0
X128.0Y-111.0
X128.0Y-113.0
X128.0Y-127.9
X128.0Y-154.0
X128.0Y-156.0
X128.0Y-158.0
X128.4Y-120.5
X128.5Y-69.4
X128.5Y-70.2
X128.5Y-71.0
X128.5Y-71.8
X128.9Y-42.7
X128.9Y-143.2
X129.0Y-45.2
X129.3Y-69.4
X129.3Y-70.2
X129.3Y-71.0
X129.3Y-71.8
X129.4Y-130.2
X129.4Y-131.2
X129.9Y-42.7
X130.0Y-45.2
X130.0Y-87.0
X130.0Y-89.0
X130.0Y-91.0
X130.0Y-92.9
X130.0Y-105.0
X130.0Y-107.0
X130.0Y-109.0
X130.0Y-111.0
X130.0Y-113.0
X130.0Y-127.0
X130.0Y-154.0
X130.0Y-156.0
X130.0Y-158.0
X130.1Y-69.4
X130.1Y-70.2
X130.1Y-71.0
X130.1Y-71.8
X130.4Y-130.2
X130.4Y-131.2
X130.6Y-96.2
X130.659Y-39.1
X130.8Y-58.4
X130.8Y-116.87
X130.9Y-42.7
X130.9Y-97.8
X131.1Y-45.2
X131.3Y-59.2
X131.4Y-32.4
X131.4Y-130.2
X131.4Y-131.2
X131.7Y-53.2
X131.8Y-58.4
X131.8Y-95.7
X131.9Y-42.7
X131.9Y-143.2
X132.0Y-85.0
X132.0Y-87.0
X132.0Y-89.0
X132.0Y-91.0
X132.0Y-103.0
X132.0Y-105.0
X132.0Y-107.0
X132.0Y-109.0
X132.0Y-111.0
X132.0Y-113.0
X132.0Y-121.0
X132.0Y-123.0
X132.0Y-127.0
X132.0Y-154.0
X132.0Y-156.0
X132.0Y-158.0
X132.1Y-45.2
X132.4Y-46.1
X132.4Y-130.2
X132.4Y-131.2
X132.7Y-135.6
X132.8Y-58.4
X132.827Y-66.3
X132.9Y-42.7
X132.9Y-53.1
X133.0Y-100.0
X133.3Y-47.5
X133.4Y-56.5
X133.4Y-130.2
X133.4Y-131.2
X133.7Y-134.6
X133.7Y-134.6
X133.7Y-135.6
X133.8Y-95.2
X133.9Y-42.7
X134.0Y-83.0
X134.0Y-85.0
X134.0Y-87.0
X134.0Y-89.0
X134.0Y-91.0
X134.0Y-103.0
X134.0Y-105.0
X134.0Y-107.0
X134.0Y-109.0
X134.0Y-111.0
X134.0Y-113.0
X134.0Y-121.0
X134.0Y-123.0
X134.0Y-127.0
X134.0Y-154.0
X134.0Y-156.0
X134.0Y-158.0
X134.1Y-150.4
X134.359Y-33.8
X134.4Y-130.2
X134.4Y-131.2
X134.7Y-134.6
X134.7Y-135.6
X134.775Y-53.206
X134.9Y-42.7
X135.7Y-134.6
X135.7Y-135.6
X135.9Y-42.7
X135.9Y-92.9
X136.0Y-81.0
X136.0Y-83.0
X136.0Y-85.0
X136.0Y-87.0
X136.0Y-89.0
X136.0Y-91.0
X136.0Y-97.0
X136.0Y-101.0
X136.0Y-103.0
X136.0Y-105.0
X136.0Y-107.0
X136.0Y-109.0
X136.0Y-111.0
X136.0Y-113.0
X136.0Y-121.0
X136.0Y-123.0
X136.0Y-127.0
X136.0Y-154.0
X136.0Y-157.0
X136.0Y-158.0
X136.2Y-95.0
X136.4Y-55.1
X136.9Y-42.7
X137.1Y-153.1
X137.2Y-48.1
X137.259Y-39.1
X137.7Y-65.4
X137.7Y-66.2
X137.7Y-67.0
X137.7Y-67.8
X137.9Y-42.7
X138.0Y-32.4
X138.0Y-79.0
X138.0Y-81.0
X138.0Y-83.0
X138.0Y-85.0
X138.0Y-87.0
X138.0Y-89.0
X138.0Y-91.0
X138.0Y-93.0
X138.0Y-97.0
X138.0Y-101.0
X138.0Y-103.0
X138.0Y-105.0
X138.0Y-107.0
X138.0Y-109.0
X138.0Y-111.0
X138.0Y-113.0
X138.0Y-121.0
X138.0Y-123.0
X138.0Y-127.0
X138.0Y-144.0
X138.0Y-146.0
X138.0Y-154.0
X138.0Y-157.0
X138.0Y-158.0
X138.4Y-45.1
X138.5Y-65.4
X138.5Y-66.2
X138.5Y-67.0
X138.5Y-67.8
X138.9Y-42.7
X139.3Y-65.4
X139.3Y-66.2
X139.3Y-67.0
X139.3Y-67.8
X139.8Y-42.2
X139.8Y-48.6
X139.9Y-153.0
X140.0Y-77.0
X140.0Y-79.0
X140.0Y-81.0
X140.0Y-83.0
X140.0Y-85.0
X140.0Y-87.0
X140.0Y-89.0
X140.0Y-91.0
X140.0Y-93.0
X140.0Y-101.0
X140.0Y-103.0
X140.0Y-105.0
X140.0Y-107.0
X140.0Y-109.0
X140.0Y-111.0
X140.0Y-113.0
X140.0Y-121.0
X140.0Y-123.0
X140.0Y-127.0
X140.0Y-134.5
X140.0Y-135.5
X140.0Y-144.0
X140.0Y-154.0
X140.0Y-158.0
X140.1Y-65.4
X140.1Y-66.2
X140.1Y-67.0
X140.1Y-67.8
X140.5Y-47.9
X140.507Y-49.307
X140.959Y-33.7
X141.0Y-42.1
X141.0Y-134.5
X141.0Y-135.5
X141.2Y-47.2
X141.207Y-48.607
X141.214Y-50.014
X141.3Y-130.2
X141.3Y-131.2
X141.9Y-46.5
X141.9Y-50.7
X141.907Y-47.907
X141.914Y-49.314
X142.0Y-42.2
X142.0Y-61.0
X142.0Y-68.0
X142.0Y-77.0
X142.0Y-79.0
X142.0Y-81.0
X142.0Y-83.0
X142.0Y-85.0
X142.0Y-87.0
X142.0Y-89.0
X142.0Y-91.0
X142.0Y-93.0
X142.0Y-95.0
X142.0Y-101.0
X142.0Y-103.0
X142.0Y-105.0
X142.0Y-107.0
X142.0Y-109.0
X142.0Y-111.0
X142.0Y-113.0
X142.0Y-121.0
X142.0Y-123.0
X142.0Y-127.0
X142.0Y-134.5
X142.0Y-135.5
X142.0Y-154.0
X142.0Y-156.0
X142.0Y-158.0
X142.3Y-130.2
X142.3Y-131.2
X142.6Y-50.0
X142.6Y-150.0
X142.607Y-47.207
X142.614Y-48.614
X142.7Y-43.3
X142.8Y-42.2
X142.9Y-51.6
X143.0Y-134.5
X143.0Y-135.5
X143.3Y-49.3
X143.3Y-130.2
X143.3Y-131.2
X143.307Y-46.507
X143.314Y-47.914
X143.564Y-52.207
X143.643Y-50.9
X143.7Y-42.4
X143.7Y-65.0
X143.7Y-66.0
X143.7Y-66.9
X143.7Y-67.9
X143.7Y-68.9
X143.859Y-39.1
X144.0Y-48.6
X144.0Y-77.0
X144.0Y-79.0
X144.0Y-81.0
X144.0Y-83.0
X144.0Y-85.0
X144.0Y-87.0
X144.0Y-89.0
X144.0Y-91.0
X144.0Y-93.0
X144.0Y-95.0
X144.0Y-97.0
X144.0Y-103.0
X144.0Y-105.0
X144.0Y-107.0
X144.0Y-109.0
X144.0Y-111.0
X144.0Y-113.0
X144.0Y-127.0
X144.0Y-154.0
X144.0Y-156.0
X144.0Y-158.0
X144.014Y-47.214
X144.272Y-51.5
X144.272Y-52.914
X144.3Y-130.2
X144.3Y-131.2
X144.6Y-42.7
X144.7Y-32.4
X144.7Y-47.9
X144.972Y-50.8
X144.979Y-52.207
X144.979Y-53.621
X145.3Y-130.2
X145.3Y-131.2
X145.4Y-48.7
X145.6Y-42.7
X145.6Y-143.3
X145.686Y-52.914
X145.7Y-120.7
X145.9Y-49.9
X145.907Y-54.407
X146.0Y-77.0
X146.0Y-79.0
X146.0Y-81.0
X146.0Y-83.0
X146.0Y-85.0
X146.0Y-87.0
X146.0Y-89.0
X146.0Y-91.0
X146.0Y-93.0
X146.0Y-95.0
X146.0Y-97.0
X146.0Y-99.0
X146.0Y-105.0
X146.0Y-107.0
X146.0Y-109.0
X146.0Y-111.0
X146.0Y-113.0
X146.0Y-154.0
X146.0Y-156.0
X146.0Y-158.0
X146.1Y-43.2
X146.3Y-130.2
X146.3Y-131.2
X146.386Y-49.386
X146.6Y-53.7
X146.607Y-55.107
X146.7Y-43.6
X146.7Y-51.6
X147.2Y-124.6
X147.3Y-50.8
X147.3Y-120.7
X147.3Y-53.0
X147.307Y-54.407
X147.307Y-55.807
X147.659Y-33.6
X147.9Y-143.3
X148.0Y-52.4
X148.0Y-77.0
X148.0Y-79.0
X148.0Y-81.0
X148.0Y-83.0
X148.0Y-85.0
X148.0Y-87.0
X148.0Y-89.0
X148.0Y-91.0
X148.0Y-93.0
X148.0Y-95.0
X148.0Y-97.0
X148.0Y-99.0
X148.0Y-101.0
X148.0Y-107.0
X148.0Y-109.0
X148.0Y-111.0
X148.0Y-113.0
X148.0Y-127.0
X148.0Y-154.0
X148.0Y-156.0
X148.0Y-158.0
X148.007Y-53.707
X148.014Y-55.114
X148.2Y-45.8
X148.4Y-62.5
X148.4Y-63.5
X148.4Y-64.5
X148.4Y-65.4
X148.5Y-68.8
X148.5Y-69.8
X148.5Y-70.8
X148.6Y-131.5
X148.6Y-132.5
X148.6Y-133.5
X148.6Y-134.5
X148.6Y-135.5
X148.7Y-53.1
X148.714Y-54.414
X148.757Y-51.806
X148.8Y-43.1
X148.8Y-120.7
X149.1Y-32.6
X149.4Y-52.4
X149.4Y-53.8
X149.6Y-43.4
X149.6Y-131.5
X149.6Y-132.5
X149.6Y-133.5
X149.6Y-134.5
X149.6Y-135.5
X149.95Y-46.95
X150.0Y-45.0
X150.0Y-64.0
X150.0Y-77.0
X150.0Y-79.0
X150.0Y-81.0
X150.0Y-83.0
X150.0Y-85.0
X150.0Y-87.0
X150.0Y-89.0
X150.0Y-91.0
X150.0Y-93.0
X150.0Y-95.0
X150.0Y-97.0
X150.0Y-99.0
X150.0Y-101.0
X150.0Y-103.0
X150.0Y-109.0
X150.0Y-111.0
X150.0Y-113.0
X150.0Y-154.0
X150.0Y-156.0
X150.0Y-158.0
X150.107Y-53.107
X150.4Y-120.7
X150.5Y-43.3
X150.6Y-131.5
X150.6Y-132.5
X150.6Y-133.5
X150.6Y-134.5
X150.6Y-135.5
X150.7Y-149.9
X151.048Y-54.152
X151.1Y-52.9
X151.4Y-43.0
X151.5Y-120.6
X151.6Y-131.5
X151.6Y-132.5
X151.6Y-133.5
X151.6Y-134.5
X151.6Y-135.5
X151.8Y-50.2
X152.0Y-75.0
X152.0Y-77.0
X152.0Y-79.0
X152.0Y-81.0
X152.0Y-83.0
X152.0Y-85.0
X152.0Y-87.0
X152.0Y-89.0
X152.0Y-91.0
X152.0Y-93.0
X152.0Y-95.0
X152.0Y-97.0
X152.0Y-99.0
X152.0Y-101.0
X152.0Y-103.0
X152.0Y-105.0
X152.0Y-109.0
X152.0Y-111.0
X152.0Y-113.0
X152.0Y-154.0
X152.0Y-157.0
X152.0Y-158.0
X152.1Y-65.4
X152.1Y-66.2
X152.1Y-67.0
X152.1Y-67.8
X152.148Y-55.252
X152.4Y-43.1
X152.6Y-131.5
X152.6Y-132.5
X152.6Y-133.5
X152.6Y-134.5
X152.6Y-135.5
X152.7Y-38.87
X152.7Y-127.5
X152.9Y-65.4
X152.9Y-66.2
X152.9Y-67.0
X152.9Y-67.8
X153.1Y-43.4
X153.2Y-152.6
X153.6Y-43.9
X153.6Y-131.5
X153.6Y-132.5
X153.6Y-133.5
X153.6Y-134.5
X153.6Y-135.5
X153.7Y-65.4
X153.7Y-66.2
X153.7Y-67.0
X153.7Y-67.8
X154.0Y-73.0
X154.0Y-75.0
X154.0Y-77.0
X154.0Y-79.0
X154.0Y-81.0
X154.0Y-83.0
X154.0Y-85.0
X154.0Y-87.0
X154.0Y-89.0
X154.0Y-91.0
X154.0Y-93.0
X154.0Y-95.0
X154.0Y-97.0
X154.0Y-99.0
X154.0Y-101.0
X154.0Y-154.0
X154.0Y-157.0
X154.0Y-158.0
X154.5Y-44.1
X154.5Y-65.4
X154.5Y-66.2
X154.5Y-67.0
X154.5Y-67.8
X154.6Y-131.5
X154.6Y-132.5
X154.6Y-133.5
X154.6Y-134.5
X154.6Y-135.5
X154.8Y-46.9
X154.8Y-47.9
X154.8Y-48.9
X154.8Y-49.9
X154.8Y-50.9
X154.8Y-51.9
X154.8Y-52.9
X154.8Y-53.9
X155.0Y-54.9
X155.0Y-55.9
X155.2Y-152.5
X155.3Y-40.9
X155.6Y-131.5
X155.6Y-132.5
X155.6Y-133.5
X155.6Y-134.5
X155.6Y-135.5
X156.0Y-32.6
X156.0Y-101.0
X156.0Y-154.0
X156.0Y-158.0
X156.5Y-70.9
X156.5Y-127.5
X156.6Y-131.5
X156.6Y-132.5
X156.6Y-133.5
X156.6Y-134.5
X156.6Y-135.5
X157.0Y-77.2
X157.0Y-78.0
X157.0Y-79.0
X157.0Y-80.0
X157.0Y-81.0
X157.0Y-82.0
X157.0Y-83.0
X157.0Y-84.0
X157.0Y-85.0
X157.0Y-86.0
X157.0Y-87.0
X157.0Y-88.0
X157.0Y-89.0
X157.0Y-90.0
X157.0Y-91.0
X157.0Y-92.0
X157.0Y-93.0
X157.0Y-94.0
X157.0Y-95.0
X157.0Y-95.9
X157.0Y-96.9
X157.1Y-70.1
X157.272Y-76.428
X157.529Y-97.729
X157.6Y-36.5
X157.6Y-131.5
X157.6Y-132.5
X157.6Y-133.5
X157.6Y-134.5
X157.6Y-135.5
X157.7Y-70.9
X157.979Y-75.721
X158.0Y-149.9
X158.0Y-154.0
X158.0Y-156.0
X158.0Y-158.0
X158.1Y-41.0
X158.173Y-45.187
X158.236Y-98.436
X158.6Y-131.5
X158.6Y-132.5
X158.6Y-133.5
X158.6Y-134.5
X158.6Y-135.5
X158.686Y-75.014
X158.9Y-32.3
X159.1Y-120.6
X159.3Y-45.2
X159.393Y-74.307
X159.9Y-36.5
X160.0Y-154.0
X160.0Y-156.0
X160.0Y-158.0
X160.1Y-73.6
X160.233Y-44.592
X160.3Y-38.87
X160.3Y-45.8
X160.3Y-133.1
X160.3Y-134.1
X160.8Y-71.9
X160.8Y-72.9
X160.9Y-143.2
X161.1Y-109.3
X161.1Y-110.3
X161.1Y-111.3
X161.1Y-112.264
X161.136Y-108.3
X161.2Y-107.3
X161.2Y-118.2
X161.2Y-119.164
X161.236Y-106.3
X161.236Y-120.2
X161.236Y-121.2
X161.236Y-122.2
X161.3Y-133.1
X161.3Y-134.1
X161.4Y-32.2
X161.9Y-52.0
X161.9Y-79.8
X161.9Y-80.7
X161.9Y-81.9
X161.9Y-83.1
X161.9Y-84.3
X161.9Y-85.5
X161.9Y-86.7
X161.9Y-87.9
X161.9Y-89.1
X161.9Y-90.3
X161.9Y-91.5
X162.0Y-154.0
X162.0Y-156.0
X162.0Y-158.0
X162.3Y-133.1
X162.3Y-134.1
X162.778Y-117.377
X163.3Y-133.1
X163.3Y-134.1
X163.7Y-143.2
X164.0Y-154.0
X164.0Y-156.0
X164.0Y-158.0
X164.1Y-73.5
X164.1Y-74.7
X164.1Y-75.9
X164.1Y-77.1
X164.1Y-78.3
X164.3Y-133.1
X164.3Y-134.1
X164.5Y-114.1
X165.278Y-123.377
X165.3Y-133.1
X165.3Y-134.1
X165.4Y-115.7
X166.0Y-32.7
X166.0Y-154.0
X166.0Y-156.0
X166.0Y-158.0
X166.004Y-149.604
X166.3Y-129.6
X166.397Y-45.252
X166.6Y-38.87
X166.791Y-46.453
X166.8Y-132.9
X166.8Y-133.9
X166.82Y-43.753
X166.9Y-123.7
X166.956Y-47.365
X167.2Y-74.7
X167.2Y-75.9
X167.2Y-77.1
X167.2Y-78.3
X167.2Y-79.5
X167.2Y-80.7
X167.2Y-81.9
X167.2Y-85.5
X167.2Y-86.7
X167.2Y-87.9
X167.2Y-89.1
X167.2Y-90.3
X167.2Y-91.2
X167.7Y-41.1
X167.8Y-123.7
X167.8Y-132.9
X167.8Y-133.9
X167.9Y-117.5
X168.0Y-32.7
X168.0Y-34.7
X168.0Y-36.0
X168.0Y-154.0
X168.0Y-156.0
X168.0Y-158.0
X168.2Y-126.2
X168.4Y-95.0
X168.7Y-127.4
X168.8Y-111.5
X168.8Y-132.9
X168.8Y-133.9
X168.8Y-152.4
X169.0Y-45.5
X169.8Y-132.9
X169.8Y-133.9
X170.0Y-32.7
X170.0Y-34.7
X170.0Y-36.0
X170.0Y-144.0
X170.0Y-146.0
X170.0Y-148.0
X170.0Y-150.0
X170.0Y-152.0
X170.0Y-154.0
X170.0Y-156.0
X170.0Y-158.0
X170.6Y-96.2
X170.8Y-132.9
X170.8Y-133.9
X171.5Y-129.3
X171.5Y-130.3
X171.5Y-131.3
X172.0Y-32.7
X172.0Y-34.7
X172.0Y-36.0
X172.0Y-144.0
X172.0Y-146.0
X172.0Y-148.0
X172.0Y-150.0
X172.0Y-152.0
X172.0Y-154.0
X172.0Y-156.0
X172.0Y-158.0
X172.5Y-129.3
X172.5Y-130.3
X172.5Y-131.3
X172.8Y-43.6
X173.5Y-130.3
X173.5Y-131.3
X173.5Y-132.3
X173.5Y-133.3
X173.8Y-55.1
X173.9Y-93.8
X174.0Y-32.7
X174.0Y-34.7
X174.0Y-36.0
X174.0Y-144.0
X174.0Y-146.0
X174.0Y-148.0
X174.0Y-150.0
X174.0Y-152.0
X174.0Y-154.0
X174.0Y-156.0
X174.0Y-158.0
X174.5Y-50.4
X174.5Y-131.3
X174.5Y-132.3
X174.5Y-133.3
X176.0Y-32.7
X176.0Y-34.7
X176.0Y-146.0
X176.0Y-148.0
X176.0Y-150.0
X176.0Y-158.0
X176.2Y-143.7
X176.455Y-119.3
X176.525Y-117.3
X176.7Y-40.9
X177.0Y-102.0
X177.5Y-32.7
X177.5Y-34.7
X177.8Y-41.8
X178.0Y-148.0
X178.0Y-150.0
X178.0Y-158.0
X178.1Y-130.3
X178.1Y-131.3
X178.1Y-132.3
X178.1Y-133.3
X178.1Y-139.2
X178.1Y-140.3
X178.1Y-141.3
X178.1Y-142.3
X178.6Y-122.3
X178.6Y-123.3
X178.6Y-124.3
X179.1Y-130.3
X179.1Y-131.3
X179.1Y-132.3
X179.1Y-133.3
X179.1Y-139.2
X179.1Y-140.3
X179.1Y-141.3
X179.1Y-142.3
X179.5Y-32.7
X179.6Y-117.2
X179.7Y-122.3
X179.7Y-123.3
X179.7Y-124.3
X179.7Y-125.3
X179.7Y-126.3
X179.725Y-119.6
X179.9Y-49.4
X180.0Y-158.0
X180.1Y-130.3
X180.1Y-131.3
X180.1Y-132.3
X180.1Y-133.3
X180.1Y-139.2
X180.1Y-140.3
X180.1Y-141.3
X180.1Y-142.3
X180.2Y-39.9
X180.8Y-122.3
X180.8Y-123.3
X180.8Y-124.3
X180.8Y-125.3
X180.8Y-126.3
X180.8Y-127.2
X181.1Y-130.3
X181.1Y-131.3
X181.1Y-132.3
X181.1Y-133.3
X181.1Y-134.3
X181.1Y-139.2
X181.1Y-140.3
X181.1Y-141.3
X181.1Y-142.3
X181.3Y-117.2
X182.0Y-152.0
X182.0Y-154.0
X182.0Y-156.0
X182.0Y-158.0
X182.1Y-111.5
X182.1Y-130.3
X182.1Y-131.3
X182.1Y-132.3
X182.1Y-133.3
X182.1Y-140.3
X182.1Y-141.3
X182.1Y-142.3
X182.3Y-112.7
X182.7Y-118.7
X183.1Y-130.3
X183.1Y-131.3
X183.1Y-132.3
X183.1Y-133.3
X183.1Y-140.3
X183.1Y-141.3
X183.1Y-142.3
X183.2Y-113.8
X183.3Y-120.9
X183.3Y-121.9
X183.3Y-125.4
X183.5Y-109.2
X184.0Y-152.0
X184.0Y-154.0
X184.0Y-156.0
X184.0Y-158.0
X184.1Y-130.3
X184.1Y-131.3
X184.1Y-132.3
X184.1Y-133.3
X184.1Y-140.3
X184.1Y-141.3
X184.1Y-142.3
X185.1Y-130.3
X185.1Y-131.3
X185.1Y-132.3
X185.1Y-133.3
X185.1Y-140.3
X185.1Y-141.3
X185.1Y-142.3
X185.2Y-128.8
X185.3Y-43.5
X185.7Y-121.8
X185.7Y-127.0
X186.0Y-156.0
X186.0Y-158.0
X186.1Y-130.3
X186.1Y-131.3
X186.1Y-132.3
X186.1Y-133.3
X186.1Y-134.3
X186.1Y-135.3
X186.1Y-136.3
X186.1Y-137.3
X186.1Y-138.3
X186.1Y-139.3
X186.1Y-140.3
X186.1Y-141.3
X186.1Y-142.3
X186.169Y-125.231
X186.2Y-128.8
X187.1Y-130.3
X187.1Y-131.3
X187.1Y-132.3
X187.1Y-133.3
X187.1Y-140.3
X187.1Y-141.3
X187.1Y-142.3
X187.2Y-128.8
X187.8Y-145.0
X188.0Y-156.0
X188.0Y-158.0
X188.1Y-130.3
X188.1Y-131.3
X188.1Y-132.3
X188.1Y-133.3
X188.1Y-140.3
X188.1Y-141.3
X188.1Y-142.3
X188.2Y-75.9
X188.2Y-76.9
X188.2Y-77.9
X188.2Y-78.9
X188.2Y-79.9
X188.2Y-128.8
X188.4Y-144.3
X188.631Y-124.569
X188.753Y-142.255
X189.0Y-118.6
X189.1Y-106.2
X189.1Y-116.5
X189.1Y-121.7
X189.1Y-130.3
X189.1Y-131.3
X189.1Y-132.3
X189.1Y-133.3
X189.1Y-140.3
X189.1Y-141.3
X189.2Y-128.8
X189.3Y-75.9
X189.3Y-76.9
X189.3Y-77.9
X189.3Y-78.9
X189.3Y-79.9
X189.5Y-145.3
X190.0Y-144.2
X190.0Y-156.0
X190.0Y-158.0
X190.1Y-131.3
X190.1Y-132.3
X190.1Y-133.3
X190.1Y-134.3
X190.1Y-135.3
X190.1Y-136.3
X190.1Y-137.3
X190.1Y-138.3
X190.1Y-139.3
X190.1Y-140.3
X190.1Y-141.3
X190.1Y-142.3
X190.4Y-75.9
X190.4Y-76.9
X190.4Y-77.9
X190.4Y-78.9
X190.4Y-79.9
X191.1Y-131.3
X191.1Y-132.3
X191.1Y-133.3
X191.1Y-134.3
X191.1Y-135.3
X191.1Y-136.3
X191.1Y-137.3
X191.1Y-138.3
X191.1Y-139.3
X191.1Y-140.3
X191.1Y-141.3
X191.1Y-142.3
X191.2Y-126.9
X191.5Y-146.0
X192.0Y-152.0
X192.0Y-154.0
X192.0Y-156.0
X192.1Y-131.3
X192.1Y-132.3
X192.1Y-133.3
X192.1Y-134.3
X192.1Y-135.3
X192.1Y-136.3
X192.1Y-137.3
X192.1Y-138.3
X192.1Y-139.3
X192.1Y-140.3
X192.1Y-141.3
X192.1Y-142.3
X193.1Y-131.3
X193.1Y-132.3
X193.1Y-133.3
X193.1Y-134.3
X193.1Y-135.3
X193.1Y-136.3
X193.1Y-137.3
X193.1Y-138.3
X193.1Y-139.3
X193.1Y-140.3
X193.1Y-141.3
X193.1Y-142.3
X193.4Y-56.0
X193.4Y-148.0
X194.0Y-156.0
X194.1Y-131.3
X194.1Y-132.3
X194.1Y-133.3
X194.1Y-134.3
X194.1Y-135.3
X194.1Y-136.3
X194.1Y-137.3
X194.1Y-138.3
X194.1Y-139.3
X194.1Y-140.3
X194.1Y-141.3
X194.1Y-142.3
X195.1Y-117.8
X195.1Y-119.3
X195.1Y-120.8
X195.1Y-122.3
X195.1Y-131.3
X195.1Y-132.3
X195.1Y-133.3
X195.1Y-134.3
X195.1Y-135.3
X195.1Y-136.3
X195.1Y-137.3
X195.1Y-138.3
X195.1Y-139.3
X195.1Y-140.3
X195.1Y-141.3
X195.1Y-142.3
X195.2Y-125.1
X195.3Y-126.1
X195.8Y-76.15
X195.85Y-77.1
X195.9Y-73.5
X195.9Y-79.9
X195.9Y-81.1
X195.9Y-82.7
X195.9Y-84.7
X195.9Y-86.7
X195.9Y-88.5
X195.9Y-89.4
X195.9Y-90.3
X195.9Y-91.5
X195.9Y-92.7
X196.1Y-131.3
X196.1Y-132.3
X196.1Y-133.3
X196.1Y-134.3
X196.1Y-135.3
X196.1Y-136.3
X196.1Y-137.3
X196.1Y-138.3
X196.1Y-139.3
X196.1Y-140.3
X196.1Y-141.3
X196.1Y-142.3
X196.24Y-78.795
X197.1Y-131.3
X197.1Y-132.3
X197.1Y-133.3
X197.1Y-134.3
X197.1Y-135.3
X197.1Y-136.3
X197.1Y-137.3
X197.1Y-138.3
X197.1Y-139.3
X197.1Y-140.3
X197.1Y-141.3
X197.1Y-142.3
X197.7Y-53.9
X198.0Y-152.0
X198.1Y-131.3
X198.1Y-132.3
X198.1Y-133.3
X198.1Y-134.3
X198.1Y-135.3
X198.1Y-136.3
X198.1Y-137.3
X198.1Y-138.3
X198.1Y-139.3
X198.1Y-140.3
X198.1Y-141.3
X198.1Y-142.3
X198.2Y-95.7
X198.3Y-50.3
X198.8Y-75.5
X198.9Y-89.2
X199.1Y-131.3
X199.1Y-132.3
X199.1Y-133.3
X199.1Y-134.3
X199.1Y-135.3
X199.1Y-136.3
X199.1Y-137.3
X199.1Y-138.3
X199.1Y-139.3
X199.1Y-140.3
X199.1Y-141.3
X199.1Y-142.3
X200.1Y-131.3
X200.1Y-132.3
X200.1Y-133.3
X200.1Y-134.3
X200.1Y-135.3
X200.1Y-136.3
X200.1Y-137.3
X200.1Y-138.3
X200.1Y-139.3
X200.1Y-140.3
X200.1Y-141.3
X200.1Y-142.3
X201.1Y-74.3
X201.1Y-75.3
X201.1Y-76.3
X201.1Y-77.3
X201.1Y-78.1
X201.1Y-79.2
X201.1Y-80.1
X201.1Y-81.1
X201.1Y-82.3
X201.1Y-84.3
X201.1Y-86.3
X201.1Y-88.3
X201.1Y-90.3
X201.1Y-91.5
X201.1Y-92.7
X201.1Y-131.3
X201.1Y-132.3
X201.1Y-133.3
X201.1Y-134.3
X201.1Y-135.3
X201.1Y-136.3
X201.1Y-137.3
X201.1Y-138.3
X201.1Y-139.3
X201.1Y-140.3
X201.1Y-141.3
X201.1Y-142.3
T3
X82.25Y-83.3
X82.25Y-85.8
X82.3Y-74.7
X82.3Y-77.2
X82.3Y-94.3
X82.3Y-96.8
X82.3Y-102.9
X82.3Y-105.4
X82.3Y-111.7
X82.3Y-114.2
X82.3Y-120.4
X82.3Y-122.9
X112.75Y-151.15
X115.25Y-151.15
X129.2Y-151.3
X131.7Y-151.3
X145.25Y-151.15
X147.75Y-151.15
X160.7Y-151.15
X163.2Y-151.15
X190.808Y-35.608
X192.604Y-37.404
X194.4Y-39.2
X196.196Y-40.996
T6
X165.04Y-61.4
X165.04Y-109.4
X198.04Y-61.4
X198.04Y-109.4
T2
G00X196.145Y-47.88
M15
G01X197.245Y-47.88
M16
G05
G00X196.145Y-56.52
M15
G01X197.245Y-56.52
M16
G05
G00X200.575Y-47.88
M15
G01X201.175Y-47.88
M16
G05
G00X200.575Y-56.52
M15
G01X201.175Y-56.52
M16
G05
T4
G00X183.29Y-138.5
M15
G01X183.29Y-135.5
M16
G05
G00X188.47Y-138.5
M15
G01X188.47Y-135.5
M16
G05
T5
G00X192.84Y-114.594
M15
G01X194.64Y-114.594
M16
G05
G00X192.84Y-129.094
M15
G01X194.64Y-129.094
M16
G05
G00X199.3Y-114.594
M15
G01X200.1Y-114.594
M16
G05
G00X199.3Y-129.094
M15
G01X200.1Y-129.094
M16
G05
M30
